<svg width="182" height="56" viewBox="0 0 182 56" fill="currentColor" xmlns="http://www.w3.org/2000/svg">
<path fill-rule="evenodd" clip-rule="evenodd" d="M72.6038 0L72.9308 28.7646L73.9447 27.1702C74.5006 26.2916 75.9069 24.7298 77.0516 23.6885C78.1962 22.6472 80.0277 21.3782 81.1069 20.8576C82.1862 20.337 83.9522 19.6862 85.0315 19.3933C86.1107 19.133 88.1711 18.9052 89.6101 18.9052C91.0491 18.9052 93.1094 19.133 94.1887 19.3933C95.2679 19.6862 97.0994 20.3695 98.2767 20.9227C99.683 21.606 101.187 22.7449 102.725 24.2417C104.556 26.0313 105.374 27.2027 106.42 29.3178C107.205 30.9773 107.892 32.9947 108.121 34.3613C108.35 35.6304 108.415 37.6803 108.284 38.9819C108.186 40.2835 107.794 42.2684 107.401 43.3747C107.042 44.5136 106.224 46.2381 105.635 47.2143C105.047 48.1905 103.673 49.85 102.626 50.8912C101.58 51.8999 99.7811 53.2666 98.6038 53.8848C97.4264 54.4705 95.595 55.2189 94.5157 55.4793C93.4365 55.7721 91.2453 55.9999 89.6101 55.9999C88.0076 55.9999 85.8164 55.7721 84.7698 55.5118C83.756 55.2515 81.9899 54.5682 80.878 54.015C79.5371 53.3317 77.9346 52.0952 76.3321 50.5008C74.6642 48.8413 73.5195 47.3445 72.8327 45.9127C72.244 44.7413 71.5572 42.7564 71.2956 41.52C70.9031 39.6978 70.805 35.5653 70.6742 1.85473L72.6038 0ZM83.5598 22.1592C82.6767 22.5171 81.3031 23.2004 80.5509 23.6885C79.766 24.1766 78.4906 25.2504 77.673 26.0639C76.8553 26.9099 75.7107 28.5368 75.0893 29.6757C74.4679 30.8146 73.7811 32.5066 73.5195 33.3852C73.2906 34.2963 73.0943 36.1185 73.0943 37.4526C73.0943 38.8192 73.2579 40.5763 73.4541 41.3573C73.6503 42.1707 74.2717 43.7977 74.8277 44.9366C75.4491 46.2056 76.6918 47.8651 77.8365 49.0365C79.1774 50.4031 80.5837 51.4119 82.2516 52.2253C83.9195 53.0388 85.5547 53.5269 87.3208 53.7872C89.4138 54.1126 90.4277 54.0801 92.3899 53.7547C93.8289 53.4944 95.7912 52.811 97.1321 52.1603C98.5057 51.4444 100.174 50.2404 101.318 49.1016C102.332 48.0603 103.608 46.4008 104.131 45.3596C104.654 44.3183 105.308 42.6914 105.603 41.6827C105.897 40.7065 106.126 38.8192 106.126 37.4526C106.126 36.1185 105.897 34.2312 105.603 33.2225C105.308 32.2463 104.654 30.6519 104.131 29.6432C103.608 28.667 102.528 27.1702 101.711 26.3242C100.893 25.4782 99.4541 24.2742 98.5384 23.656C97.5899 23.0377 95.922 22.2568 94.8428 21.8988C93.7635 21.5409 91.9321 21.183 90.7547 21.0854C89.5774 20.9878 87.844 21.0528 86.9283 21.2155C85.9799 21.3782 84.4755 21.8012 83.5598 22.1592ZM112.143 0.488087C112.405 0.553166 112.536 4.52294 112.667 25.4131L114.433 23.5583C115.381 22.5171 117.049 21.2155 118.096 20.6624C119.142 20.0767 120.679 19.4584 121.497 19.2632C122.314 19.0354 124.081 18.8727 125.421 18.8727C127.024 18.8727 128.594 19.1005 129.935 19.556C131.047 19.914 132.584 20.6298 133.369 21.0854C134.121 21.5735 135.331 22.5822 136.05 23.3306C136.77 24.0464 137.751 25.3805 138.242 26.2591C138.732 27.1377 139.353 28.7321 139.615 29.8059C140.04 31.4328 140.138 33.9383 140.138 55.9999H137.849L137.686 30.1313L136.835 28.3416C136.377 27.3654 135.429 25.9337 134.709 25.1528C134.023 24.3718 132.78 23.3306 131.962 22.8099C131.145 22.2893 129.542 21.6385 128.365 21.3457C126.86 20.9552 125.618 20.8576 124.113 20.9878C122.838 21.1179 121.203 21.5735 120.025 22.1266C118.946 22.6147 117.54 23.4607 116.918 24.0139C116.297 24.5671 115.316 25.7059 114.727 26.5845C114.171 27.463 113.484 28.9924 113.19 29.9686C112.732 31.4654 112.667 33.7431 112.667 55.9999H110.704L110.639 28.7971C110.574 2.66821 110.606 1.52934 111.195 0.943635C111.522 0.618244 111.947 0.423009 112.143 0.488087V0.488087ZM18.478 18.6449C19.0994 18.6124 20.7346 18.8076 22.0755 19.0354C23.4491 19.2632 25.6075 19.979 26.9811 20.6298C28.322 21.2806 30.0881 22.3544 30.873 23.0377C31.6906 23.721 32.9006 24.9901 33.5874 25.8361C34.2742 26.6821 34.7648 27.5281 34.6667 27.6908C34.5686 27.8861 34.1107 28.0162 33.6201 28.0487C32.9333 28.0487 32.2792 27.5932 31.1673 26.4218C30.2843 25.5107 28.8126 24.2742 27.8969 23.656C26.9484 23.0377 25.2805 22.1917 24.2013 21.8012C22.6642 21.2481 21.4868 21.0854 18.805 21.0854C15.9925 21.0854 15.0113 21.2155 13.4088 21.8338C12.3296 22.2568 10.727 23.0703 9.81132 23.6234C8.9283 24.2091 7.4566 25.4782 6.54088 26.4543C5.65786 27.4305 4.51321 29.0249 4.02264 30.0011C3.53208 30.9773 2.91069 32.7344 2.64906 33.8733C2.35472 35.0447 2.12579 36.4113 2.12579 37.778H37.7736L37.5774 39.0144C37.4792 39.6978 37.2503 40.9668 37.0541 41.8453C36.8906 42.7564 36.2038 44.5786 35.5497 45.9127C34.6994 47.7349 33.7836 48.9714 32.083 50.6309C30.644 52.0626 28.9434 53.3317 27.6352 53.9824C26.4579 54.5682 24.6918 55.2515 23.7107 55.5443C22.6969 55.8046 20.473 55.9999 18.6415 55.9999C15.8943 55.9999 14.9459 55.8697 12.7547 55.0888C11.3157 54.6007 9.51698 53.7872 8.76478 53.2991C7.97987 52.8436 6.73711 51.8999 6.01761 51.2166C5.26541 50.5333 4.25157 49.3944 3.7283 48.6786C3.20503 47.9627 2.91069 47.2794 3.00881 47.1492C3.13962 47.0191 3.63019 46.8889 4.15346 46.8889C4.84025 46.8889 5.49434 47.377 6.96604 48.8738C8.30692 50.3055 9.54969 51.2166 11.4465 52.1277C12.8855 52.8436 14.9459 53.592 16.0252 53.7872C17.1044 53.9825 18.9358 54.0475 20.1132 53.9499C21.2906 53.8523 23.122 53.4618 24.2013 53.0714C25.2805 52.7134 26.8176 51.9976 27.6352 51.4769C28.4528 50.9563 29.7283 49.8825 30.5132 49.1016C31.2981 48.3532 32.3447 47.0516 32.8679 46.2381C33.3912 45.4572 34.1434 43.9604 34.5031 42.9191C34.8629 41.8779 35.1572 40.8366 35.1572 40.5438C35.1572 40.1208 32.9987 40.0557 0 40.0882L0.196226 36.574C0.359748 33.8733 0.621384 32.5391 1.27547 30.782C1.76604 29.5455 2.81258 27.6257 3.56478 26.5519C4.34969 25.4782 5.62516 24.0464 6.41006 23.3631C7.19497 22.6798 8.43774 21.7687 9.15723 21.3457C9.87673 20.9227 11.3484 20.2394 12.4277 19.8814C13.5069 19.491 15.044 19.0679 15.8616 18.9378C16.6792 18.7751 17.8566 18.6449 18.478 18.6449V18.6449ZM163.358 18.6449C164.176 18.6124 165.877 18.8076 167.12 19.1005C168.395 19.3608 170.521 20.1092 171.862 20.7274C173.497 21.5084 175.001 22.5822 176.375 23.9163C177.52 25.0226 178.893 26.5845 179.416 27.3654C179.94 28.1789 180.725 29.8709 181.182 31.1074C181.967 33.3852 182 33.4828 182 55.9999H180.038L180.07 46.0754L178.664 48.1905C177.879 49.3294 176.44 50.9238 175.459 51.7047C174.478 52.5182 172.81 53.592 171.796 54.1126C170.75 54.6007 169.049 55.2515 168.035 55.5118C166.989 55.8046 164.961 55.9999 163.522 55.9999C162.083 55.9999 159.957 55.7721 158.78 55.5118C157.603 55.2189 155.64 54.4705 154.365 53.7872C153.057 53.1039 151.225 51.7698 150.113 50.6309C149.001 49.5246 147.628 47.7349 146.941 46.4008C146.287 45.1643 145.502 43.2445 145.24 42.1707C144.946 41.0969 144.717 38.9168 144.717 37.2899C144.717 35.2399 144.913 33.7106 145.404 32.0836C145.764 30.8471 146.516 29.09 147.006 28.1789C147.497 27.3003 148.642 25.771 149.525 24.8274C150.375 23.8512 151.977 22.4846 153.057 21.8012C154.136 21.0854 155.804 20.2394 156.752 19.8814C157.668 19.5235 159.238 19.1005 160.186 18.9703C161.102 18.8076 162.541 18.6449 163.358 18.6449V18.6449ZM156.491 22.3869C155.673 22.7449 154.267 23.6234 153.318 24.3067C152.37 25.0226 151.062 26.3242 150.375 27.2027C149.688 28.1138 148.772 29.5781 148.347 30.4566C147.922 31.3677 147.366 33.1899 147.072 34.524C146.647 36.574 146.647 37.42 146.974 39.5676C147.203 41.2596 147.726 42.9842 148.478 44.4485C149.099 45.7175 150.081 47.3119 150.669 48.0278C151.258 48.7436 152.631 49.9476 153.711 50.7285C154.79 51.5095 156.458 52.4206 157.406 52.7785C158.322 53.1364 160.055 53.5594 161.233 53.7221C162.65 53.9391 164.154 53.9391 165.746 53.7221C167.316 53.5269 168.951 53.0063 170.717 52.1277C172.679 51.1841 173.824 50.3381 175.394 48.7111C176.604 47.4421 177.814 45.75 178.37 44.5461C178.893 43.4398 179.482 41.7477 179.678 40.8041C179.874 39.8605 180.038 38.266 180.038 37.2248C180.038 36.1835 179.809 34.459 179.547 33.3852C179.253 32.3114 178.631 30.6519 178.141 29.6757C177.65 28.667 176.375 27.0075 175.296 25.9337C174.216 24.8274 172.45 23.4933 171.371 22.9401C170.292 22.3544 168.526 21.6711 167.447 21.3782C166.367 21.0854 164.47 20.8901 163.195 20.8901C161.952 20.9227 160.252 21.1179 159.434 21.3457C158.616 21.5735 157.308 22.029 156.491 22.3869V22.3869ZM39.4742 18.8402L41.4365 20.2719L41.4038 31.7907C41.3711 42.008 41.4365 43.5374 41.9598 45.1969C42.2868 46.2381 43.0717 47.8 43.7258 48.6786C44.3472 49.5897 45.4591 50.7611 46.1459 51.2817C46.8654 51.8023 48.239 52.6158 49.2201 53.0714C50.7245 53.7547 51.5094 53.8848 53.995 53.8848C56.7094 53.8848 57.1019 53.8198 59.3912 52.7134C60.9937 51.9325 62.3019 50.9888 63.2503 49.9476C64.0352 49.069 65.0818 47.5722 66.3899 44.7739L66.5535 20.6949L67.5346 19.7187C68.2868 18.9703 68.5484 18.8727 68.6792 19.2306C68.7774 19.5235 68.8101 25.3805 68.7774 32.2463C68.6792 44.2532 68.6465 44.8715 67.9598 46.5635C67.5673 47.5722 66.6189 49.2317 65.834 50.3055C65.0164 51.4119 63.6101 52.7785 62.6289 53.4618C61.6478 54.1126 59.8818 54.9586 58.7044 55.3491C56.9384 55.9673 56.0226 56.065 53.3082 55.9673C50.4302 55.8372 49.7761 55.707 47.7484 54.7634C46.3421 54.0801 44.7069 52.9412 43.5623 51.8349C42.3522 50.6635 41.273 49.1992 39.5723 45.75L39.4742 18.8402Z" fill="currentColor"/>
</svg>
