<svg width="17" height="17" viewBox="0 0 17 17" fill="none" xmlns="http://www.w3.org/2000/svg">
<g clip-path="url(#clip0_325_1175)">
<path d="M16.965 8.98244C16.965 4.56416 13.3833 0.98244 8.96503 0.98244C4.54675 0.98244 0.965027 4.56416 0.965027 8.98244C0.965027 12.9755 3.89051 16.2851 7.71503 16.8853V11.2949H5.68378V8.98244H7.71503V7.21994C7.71503 5.21494 8.90937 4.10744 10.7367 4.10744C11.612 4.10744 12.5275 4.26369 12.5275 4.26369V6.23244H11.5187C10.5249 6.23244 10.215 6.84911 10.215 7.48177V8.98244H12.4338L12.0791 11.2949H10.215V16.8853C14.0395 16.2851 16.965 12.9755 16.965 8.98244Z" fill="white"/>
</g>
<defs>
<clipPath id="clip0_325_1175">
<rect width="16" height="16" fill="white" transform="translate(0.965027 0.982422)"/>
</clipPath>
</defs>
</svg>
