<svg width="15" height="17" viewBox="0 0 15 17" fill="none" xmlns="http://www.w3.org/2000/svg">
<path fill-rule="evenodd" clip-rule="evenodd" d="M7.92509 0.982542C8.0282 0.981761 8.19537 0.984886 8.29614 0.988793C8.39691 0.993481 8.52892 1.00051 8.58907 1.00442C8.64922 1.00911 8.75624 1.0177 8.82732 1.02473C8.89841 1.03098 9.01245 1.04349 9.0812 1.05208C9.14994 1.06067 9.27492 1.07786 9.3585 1.09115C9.44209 1.10443 9.58973 1.13099 9.68659 1.14974C9.78345 1.16928 9.95062 1.20756 10.0576 1.23491C10.1654 1.26226 10.3131 1.30288 10.3857 1.32476C10.4584 1.34742 10.5787 1.38649 10.6513 1.41227C10.724 1.43805 10.8419 1.48181 10.913 1.50993C10.9841 1.53806 11.0966 1.58572 11.163 1.61541C11.2294 1.6451 11.3614 1.70917 11.4559 1.75761C11.5504 1.80605 11.6809 1.87637 11.7449 1.91466C11.8098 1.95216 11.9012 2.00763 11.948 2.03811C11.9949 2.06858 12.0793 2.12483 12.1355 2.16312C12.1917 2.20218 12.2808 2.26703 12.3347 2.30766C12.3886 2.34907 12.473 2.41548 12.5222 2.45611C12.5714 2.49752 12.6417 2.55768 12.6784 2.58972C12.7151 2.62253 12.7917 2.69285 12.8495 2.74676C12.9065 2.80068 13.0088 2.90459 13.0768 2.97725C13.1447 3.0507 13.2447 3.16243 13.2994 3.22728C13.3541 3.29134 13.4517 3.41479 13.5166 3.50074C13.5806 3.58668 13.6806 3.72732 13.7369 3.81327C13.7939 3.89921 13.8665 4.01328 13.8993 4.0672C13.9314 4.12111 13.9845 4.21408 14.0181 4.27425C14.0517 4.33441 14.1165 4.45942 14.1626 4.55161C14.2087 4.64381 14.2735 4.78132 14.3071 4.85633C14.3407 4.93134 14.393 5.05791 14.4243 5.1376C14.4555 5.2173 14.5008 5.33684 14.5243 5.40325C14.5477 5.46967 14.5899 5.59624 14.618 5.68453C14.6461 5.77282 14.6805 5.88611 14.6953 5.93611C14.7094 5.9869 14.718 6.03065 14.7141 6.03378C14.711 6.0369 14.4157 6.11738 14.0579 6.2127C13.7009 6.30802 13.4017 6.38772 13.3932 6.39084C13.3791 6.39553 13.3752 6.38772 13.3549 6.31584C13.3424 6.2713 13.3018 6.14238 13.2643 6.02831C13.2268 5.91424 13.169 5.75485 13.1369 5.67281C13.1049 5.59077 13.0573 5.4767 13.0315 5.41888C13.0057 5.36106 12.951 5.24465 12.9088 5.16104C12.8667 5.07744 12.8018 4.95399 12.7635 4.88758C12.7261 4.82117 12.6636 4.71804 12.6261 4.65944C12.5886 4.60006 12.5269 4.50864 12.4894 4.45629C12.4519 4.40316 12.3823 4.31097 12.3339 4.25081C12.2863 4.19064 12.2121 4.10314 12.1707 4.05548C12.1285 4.00782 12.0277 3.90468 11.9472 3.82499C11.866 3.74529 11.7543 3.64216 11.6981 3.59528C11.6418 3.54918 11.5543 3.47886 11.5028 3.44058C11.4512 3.40151 11.3543 3.33354 11.288 3.28978C11.2216 3.24525 11.1216 3.18274 11.0653 3.14993C11.0091 3.11711 10.895 3.05539 10.8114 3.01319C10.7279 2.97022 10.606 2.91319 10.542 2.88506C10.4771 2.85771 10.3685 2.81318 10.2998 2.78739C10.2311 2.76161 10.1061 2.71864 10.0225 2.69285C9.9389 2.66629 9.79439 2.62566 9.70221 2.60222C9.61004 2.57956 9.4624 2.54596 9.37413 2.52878C9.28586 2.51159 9.13978 2.48658 9.04995 2.47408C8.96012 2.4608 8.8156 2.44283 8.72968 2.43424C8.64375 2.42564 8.52267 2.4147 8.46018 2.4108C8.39769 2.40611 8.22583 2.39986 8.07742 2.39751C7.91025 2.39439 7.7384 2.39673 7.62435 2.4022C7.52358 2.40767 7.38297 2.41705 7.31189 2.4233C7.2408 2.42955 7.13535 2.4397 7.07754 2.44674C7.01974 2.45299 6.91428 2.46705 6.8432 2.47799C6.77211 2.48893 6.65103 2.51002 6.5737 2.52487C6.49636 2.5405 6.38232 2.56472 6.31982 2.57956C6.25733 2.59441 6.1675 2.61706 6.12063 2.63035C6.07376 2.64363 5.97534 2.67332 5.90191 2.69598C5.82848 2.71942 5.72146 2.75614 5.66366 2.77802C5.60585 2.79989 5.50352 2.8413 5.43712 2.86943C5.37072 2.89834 5.25433 2.95225 5.17934 2.98975C5.10435 3.02726 4.99343 3.08742 4.93328 3.12258C4.87313 3.15774 4.78017 3.21477 4.72627 3.24993C4.67237 3.28509 4.58098 3.34916 4.52317 3.39213C4.46537 3.43511 4.38257 3.49996 4.3396 3.53512C4.29664 3.57106 4.20915 3.64763 4.1451 3.70623C4.08182 3.76561 3.99512 3.84999 3.95293 3.8953C3.91153 3.94062 3.84045 4.01953 3.7967 4.0711C3.75296 4.12267 3.67406 4.22112 3.62251 4.28987C3.57095 4.35863 3.49283 4.46958 3.44909 4.53599C3.40535 4.6024 3.33973 4.70788 3.30301 4.77038C3.26708 4.83289 3.21006 4.93446 3.17803 4.99697C3.14522 5.05947 3.09523 5.16104 3.06633 5.22355C3.03742 5.28606 2.99524 5.3806 2.97259 5.43451C2.94915 5.48842 2.90619 5.59702 2.87651 5.67672C2.84682 5.75641 2.80386 5.87751 2.78199 5.94627C2.75933 6.01503 2.72574 6.12597 2.70621 6.19239C2.68669 6.2588 2.64997 6.39787 2.62497 6.50101C2.5992 6.60414 2.56483 6.75884 2.54764 6.84479C2.53046 6.93073 2.50624 7.06434 2.49296 7.14169C2.48046 7.21904 2.4625 7.33311 2.4539 7.39562C2.44453 7.45813 2.43047 7.56829 2.42266 7.64174C2.41406 7.71518 2.40157 7.83238 2.39532 7.90348C2.38829 7.97458 2.37813 8.10818 2.37188 8.20038C2.36485 8.29258 2.35626 8.47228 2.35079 8.59885C2.34532 8.73949 2.34376 8.94654 2.3461 9.13015C2.34923 9.29579 2.3547 9.49425 2.35938 9.5716C2.36329 9.64895 2.37266 9.78255 2.37891 9.8685C2.38594 9.95444 2.39844 10.0935 2.40703 10.1771C2.41563 10.2607 2.42969 10.3842 2.43828 10.4506C2.44609 10.517 2.46562 10.6506 2.48124 10.7475C2.49608 10.8444 2.52499 11.0022 2.54374 11.0991C2.56326 11.196 2.5992 11.3593 2.62497 11.4624C2.64997 11.5655 2.68669 11.7046 2.70621 11.771C2.72574 11.8374 2.75933 11.9484 2.78199 12.0171C2.80386 12.0859 2.84682 12.207 2.87651 12.2867C2.90619 12.3664 2.94993 12.4758 2.97337 12.5305C2.9968 12.5859 3.04211 12.6875 3.07414 12.757C3.10695 12.8274 3.16397 12.9407 3.20068 13.0094C3.2374 13.0782 3.29052 13.1735 3.31864 13.2204C3.34676 13.2672 3.40535 13.361 3.44909 13.4274C3.49283 13.4938 3.57095 13.6048 3.62251 13.6735C3.67406 13.7423 3.7514 13.8392 3.79358 13.8892C3.83654 13.9384 3.90763 14.0189 3.95293 14.0673C3.99824 14.1158 4.08573 14.2025 4.14822 14.2595C4.21071 14.3166 4.30367 14.3986 4.35523 14.4408C4.40678 14.483 4.49505 14.551 4.55051 14.5916C4.60598 14.6322 4.69971 14.6955 4.75752 14.733C4.81532 14.7705 4.91063 14.8275 4.96843 14.8611C5.02624 14.8947 5.11607 14.9424 5.16762 14.969C5.21918 14.9947 5.31214 15.0385 5.37463 15.0666C5.43712 15.094 5.53711 15.1362 5.59726 15.1596C5.65741 15.183 5.76833 15.2229 5.84332 15.2479C5.91831 15.2729 6.02611 15.3065 6.08157 15.3221C6.13703 15.3377 6.23937 15.3643 6.30811 15.3807C6.37685 15.3971 6.49636 15.4229 6.5737 15.4385C6.65103 15.4534 6.77211 15.4745 6.8432 15.4854C6.91428 15.4964 7.03692 15.5128 7.1166 15.5214C7.19628 15.5299 7.32985 15.5424 7.41344 15.5487C7.49702 15.5557 7.69231 15.5628 7.84698 15.5659C8.02039 15.5682 8.20162 15.5667 8.31957 15.5612C8.42503 15.5557 8.57423 15.5471 8.65156 15.5401C8.7289 15.5339 8.85232 15.5214 8.92497 15.5135C8.99761 15.5049 9.114 15.4885 9.18275 15.4776C9.25149 15.4667 9.35147 15.4495 9.40537 15.4385C9.45927 15.4276 9.54208 15.4104 9.58894 15.3995C9.63581 15.3885 9.73111 15.3643 9.79986 15.3456C9.8686 15.3268 9.98811 15.2893 10.0654 15.2635C10.1428 15.237 10.2514 15.1971 10.3076 15.1744C10.3638 15.151 10.4513 15.1127 10.5029 15.0893C10.5544 15.0651 10.6419 15.0213 10.6982 14.9916C10.7544 14.9619 10.845 14.9104 10.9013 14.8768C10.9575 14.8432 11.045 14.7869 11.0966 14.7518C11.1481 14.7158 11.2325 14.6549 11.284 14.6158C11.3356 14.576 11.4215 14.5064 11.4754 14.4611C11.5293 14.415 11.6488 14.3025 11.741 14.2095C11.834 14.1165 11.9465 13.9947 11.991 13.9384C12.0363 13.8821 12.0996 13.7978 12.1332 13.7509C12.166 13.704 12.2175 13.6243 12.248 13.5735C12.2785 13.5235 12.3277 13.4337 12.3573 13.3743C12.387 13.3157 12.4253 13.2336 12.4425 13.193C12.4597 13.1524 12.4878 13.0782 12.505 13.0289C12.523 12.9797 12.5511 12.8883 12.5683 12.8258C12.5854 12.7633 12.6081 12.6672 12.619 12.6109C12.63 12.5547 12.6448 12.4586 12.6526 12.3961C12.6628 12.3125 12.6659 12.2265 12.6659 12.0679C12.6659 11.9085 12.6628 11.8249 12.6518 11.7437C12.6448 11.6835 12.6315 11.5976 12.6229 11.5522C12.6143 11.5069 12.5964 11.428 12.5839 11.3764C12.5706 11.3249 12.5464 11.2413 12.5292 11.1905C12.5128 11.1405 12.4792 11.0545 12.4558 10.9991C12.4323 10.9444 12.3933 10.8647 12.3691 10.8217C12.3448 10.7787 12.2995 10.7045 12.2691 10.6576C12.2378 10.6108 12.1832 10.535 12.1472 10.4896C12.1105 10.4443 12.041 10.3662 11.991 10.3146C11.9418 10.2638 11.8644 10.1904 11.8191 10.1513C11.7738 10.1123 11.6981 10.0513 11.6512 10.0162C11.6043 9.98101 11.5285 9.92944 11.4832 9.90053C11.4379 9.87241 11.4004 9.84975 11.3997 9.85131C11.3981 9.85209 11.3887 9.91069 11.377 9.98179C11.3661 10.0529 11.3434 10.1795 11.3262 10.2631C11.309 10.3467 11.284 10.4576 11.2715 10.5092C11.2583 10.5607 11.2325 10.6553 11.2137 10.7201C11.195 10.7842 11.1606 10.892 11.1372 10.9584C11.113 11.0249 11.0739 11.1272 11.0497 11.185C11.0255 11.2428 10.9708 11.3593 10.9278 11.4429C10.8857 11.5265 10.8185 11.646 10.7794 11.7085C10.7404 11.771 10.6779 11.8632 10.6412 11.9148C10.6037 11.9656 10.5435 12.0429 10.5068 12.0867C10.4701 12.1296 10.3998 12.207 10.3506 12.2586C10.3014 12.3093 10.224 12.3828 10.1787 12.4219C10.1334 12.4609 10.0545 12.5242 10.003 12.5625C9.9514 12.6008 9.86703 12.6586 9.81548 12.6914C9.76392 12.7242 9.65847 12.7828 9.58113 12.8227C9.5038 12.8617 9.38585 12.9149 9.31945 12.9407C9.25305 12.9672 9.15775 13.0008 9.10854 13.0164C9.05932 13.0313 8.97105 13.0563 8.91325 13.0711C8.85544 13.086 8.74999 13.1086 8.6789 13.1219C8.60782 13.1344 8.48674 13.1524 8.40941 13.161C8.33207 13.1704 8.19303 13.1805 8.10085 13.1852C7.98602 13.1907 7.88135 13.1907 7.76886 13.1852C7.67903 13.1805 7.55717 13.1719 7.49936 13.1649C7.44156 13.1586 7.35173 13.1461 7.30017 13.1375C7.24861 13.1289 7.16581 13.1133 7.1166 13.1024C7.06739 13.0914 6.97209 13.0672 6.90569 13.0485C6.83929 13.0297 6.74399 13 6.69478 12.9821C6.64556 12.9641 6.55886 12.9305 6.50339 12.9063C6.44793 12.8828 6.3706 12.8469 6.33154 12.8281C6.29248 12.8086 6.22452 12.7711 6.17922 12.7453C6.13391 12.7195 6.05111 12.6672 5.99565 12.6297C5.94018 12.5922 5.85504 12.5305 5.80817 12.493C5.7613 12.4547 5.66756 12.3695 5.60116 12.3023C5.53398 12.2359 5.45275 12.1476 5.42072 12.107C5.38791 12.0664 5.33479 11.9937 5.30276 11.9468C5.27074 11.8999 5.23012 11.8359 5.21293 11.8062C5.19496 11.7765 5.15981 11.7093 5.13404 11.6577C5.10826 11.6062 5.07311 11.5288 5.05592 11.4858C5.03873 11.4429 5.01218 11.3686 4.99733 11.3218C4.98249 11.2749 4.96218 11.2077 4.95359 11.1733C4.945 11.1389 4.93094 11.0741 4.92234 11.0288C4.91297 10.9834 4.90047 10.9061 4.89422 10.8569C4.88719 10.8076 4.88016 10.6912 4.87704 10.599C4.87469 10.4959 4.87625 10.3889 4.88172 10.3217C4.88641 10.2615 4.89656 10.1756 4.90281 10.1302C4.90906 10.0849 4.92391 10.0076 4.93484 9.95835C4.94578 9.90913 4.96687 9.82787 4.98171 9.77865C4.99655 9.72942 5.02467 9.64817 5.0442 9.59894C5.06373 9.54972 5.0981 9.47003 5.12076 9.42315C5.14419 9.37627 5.18793 9.29579 5.21762 9.24501C5.24808 9.195 5.29886 9.11765 5.32932 9.07468C5.36057 9.03092 5.41837 8.95748 5.45743 8.91216C5.49649 8.86685 5.57695 8.78168 5.6371 8.72387C5.69725 8.66605 5.78786 8.58557 5.83942 8.54572C5.89097 8.50588 5.9769 8.44415 6.0308 8.40821C6.0847 8.37227 6.17765 8.31523 6.2378 8.28164C6.29795 8.24804 6.39794 8.19726 6.46043 8.16835C6.52292 8.14022 6.60729 8.1035 6.64791 8.08709C6.68853 8.07068 6.78851 8.03552 6.87054 8.00896C6.95256 7.98161 7.08379 7.94333 7.16347 7.92379C7.24315 7.90426 7.35563 7.87926 7.41344 7.8691C7.47124 7.85816 7.55561 7.84488 7.60091 7.83785C7.64622 7.8316 7.73058 7.82066 7.78839 7.81441C7.84619 7.80816 7.95399 7.798 8.02664 7.79253C8.11257 7.78628 8.3227 7.78237 8.62422 7.78237C8.93121 7.78237 9.13275 7.7855 9.2179 7.79253C9.28898 7.798 9.41865 7.80972 9.50692 7.81831C9.59519 7.82613 9.74127 7.8441 9.8311 7.8566C9.92093 7.86988 10.0014 7.88238 10.0092 7.88395C10.0181 7.88655 10.0225 7.88316 10.0225 7.87379C10.0225 7.86676 10.0139 7.81675 10.003 7.76284C9.99202 7.70893 9.97093 7.61908 9.95609 7.5636C9.94203 7.50813 9.91547 7.4214 9.89828 7.37218C9.88188 7.32296 9.84985 7.24014 9.8272 7.18857C9.80532 7.137 9.76783 7.05965 9.74361 7.01668C9.7194 6.97371 9.68034 6.90886 9.65534 6.87214C9.63113 6.83541 9.58426 6.77447 9.55223 6.7354C9.5202 6.69634 9.46474 6.63696 9.42803 6.60336C9.39209 6.56976 9.34288 6.52679 9.31945 6.50882C9.29601 6.49085 9.2468 6.45647 9.21009 6.43225C9.17337 6.40881 9.09291 6.36428 9.03042 6.33381C8.96793 6.30412 8.8695 6.26349 8.8117 6.24395C8.75389 6.2252 8.66406 6.2002 8.6125 6.18848C8.56095 6.17676 8.47346 6.16113 8.41722 6.15332C8.36097 6.14473 8.26645 6.13457 8.20631 6.12988C8.14616 6.12597 8.04617 6.12207 7.98368 6.12207C7.92119 6.12207 7.82276 6.12597 7.76495 6.13066C7.70715 6.13457 7.62513 6.14394 7.58295 6.1502C7.54155 6.15645 7.46734 6.16973 7.41969 6.17989C7.37125 6.19082 7.30017 6.20879 7.26111 6.21973C7.22205 6.23145 7.15722 6.25255 7.1166 6.26739C7.07598 6.28302 6.99318 6.31896 6.93303 6.34865C6.87288 6.37834 6.78148 6.42991 6.72993 6.46429C6.67837 6.49866 6.59713 6.56039 6.55026 6.60024C6.50339 6.64086 6.437 6.70415 6.40341 6.74009C6.36982 6.77603 6.31201 6.84635 6.2753 6.89558C6.2378 6.9448 6.20499 6.98933 6.20187 6.99324C6.19796 6.99793 5.97143 6.84635 5.63944 6.61821C5.33323 6.40725 5.07545 6.22989 5.06686 6.22364C5.05279 6.21192 5.0528 6.21036 5.0856 6.16113C5.10435 6.13301 5.15122 6.06816 5.19028 6.01737C5.22934 5.9658 5.29886 5.88142 5.34495 5.82985C5.39025 5.77751 5.46056 5.70328 5.50118 5.66421C5.54102 5.62515 5.60741 5.56342 5.64803 5.52826C5.68865 5.49232 5.76989 5.42826 5.8277 5.3845C5.8855 5.34075 5.97534 5.27902 6.02689 5.24621C6.07845 5.21339 6.16984 5.16026 6.22999 5.12745C6.29014 5.09463 6.38857 5.04697 6.44871 5.02041C6.50886 4.99384 6.59869 4.95634 6.64791 4.93837C6.69712 4.91962 6.78539 4.89071 6.8432 4.87352C6.901 4.85555 6.9838 4.83289 7.02677 4.82195C7.06973 4.81179 7.15097 4.79382 7.20643 4.78288C7.26189 4.77273 7.3322 4.75945 7.36266 4.75476C7.39313 4.75085 7.46343 4.74147 7.51889 4.73522C7.57435 4.72897 7.69934 4.7196 7.7962 4.71491C7.92978 4.70788 8.01805 4.70788 8.16334 4.71491C8.2688 4.7196 8.40394 4.72897 8.46409 4.73522C8.52423 4.74147 8.63672 4.7571 8.71405 4.77038C8.79139 4.78288 8.90544 4.80632 8.96793 4.82117C9.03042 4.8368 9.12885 4.86336 9.18665 4.88055C9.24446 4.89852 9.34991 4.93524 9.421 4.96337C9.49208 4.9915 9.60613 5.04228 9.67487 5.07666C9.74361 5.11104 9.84048 5.16417 9.88969 5.19386C9.9389 5.22433 10.0076 5.26887 10.042 5.29309C10.0764 5.31653 10.1467 5.37044 10.1982 5.41185C10.2498 5.45248 10.3357 5.52826 10.3888 5.57983C10.442 5.63062 10.5193 5.71187 10.5599 5.75875C10.6005 5.80563 10.6591 5.8783 10.6904 5.91892C10.7208 5.95955 10.7708 6.02987 10.8013 6.07519C10.8318 6.12051 10.8818 6.20098 10.9122 6.25489C10.9435 6.3088 10.9911 6.39866 11.0185 6.45413C11.045 6.5096 11.0856 6.59789 11.1067 6.64946C11.1286 6.70103 11.1622 6.78697 11.1809 6.84088C11.2005 6.89479 11.2294 6.98074 11.245 7.03231C11.2606 7.08387 11.2856 7.17373 11.3004 7.23154C11.3153 7.28936 11.3418 7.40578 11.3583 7.48938C11.3747 7.57298 11.3973 7.70502 11.4082 7.78237C11.4192 7.85972 11.4332 7.98786 11.4403 8.06756C11.4465 8.14725 11.4551 8.2332 11.4637 8.3043L11.5535 8.34414C11.6028 8.36602 11.7035 8.41446 11.7762 8.45118C11.8488 8.48869 11.9621 8.54963 12.0261 8.58713C12.091 8.62464 12.198 8.69105 12.2644 8.73558C12.3308 8.78012 12.4277 8.84731 12.4792 8.88638C12.5308 8.92466 12.6183 8.9942 12.6745 9.04108C12.7307 9.08718 12.8448 9.19422 12.9284 9.2786C13.0127 9.3622 13.1151 9.47159 13.1565 9.52081C13.1971 9.57004 13.2604 9.64973 13.2955 9.69661C13.3307 9.74349 13.3892 9.82631 13.4244 9.88022C13.4596 9.93413 13.5095 10.0146 13.5353 10.0599C13.5611 10.1052 13.6088 10.1943 13.6416 10.2592C13.6736 10.3232 13.7173 10.4185 13.7392 10.4701C13.7603 10.5217 13.7939 10.6076 13.8134 10.6615C13.8329 10.7155 13.8642 10.8139 13.8837 10.8803C13.9032 10.9467 13.9314 11.0577 13.947 11.1264C13.9626 11.1952 13.9837 11.3022 13.9939 11.3647C14.0048 11.4272 14.0189 11.5272 14.0251 11.5874C14.0321 11.6476 14.0407 11.7491 14.0454 11.814C14.0493 11.8781 14.0532 11.9999 14.0532 12.0835C14.0532 12.1671 14.0493 12.2867 14.0454 12.3492C14.0407 12.4117 14.0337 12.4961 14.0298 12.5367C14.0251 12.5773 14.0157 12.65 14.0095 12.6969C14.0025 12.7438 13.9868 12.8375 13.9743 12.9039C13.9611 12.9703 13.9353 13.0868 13.9157 13.1618C13.8962 13.2368 13.8579 13.3649 13.8306 13.4469C13.8033 13.529 13.758 13.6501 13.7306 13.7165C13.7025 13.7829 13.6595 13.8814 13.6338 13.9353C13.6088 13.9892 13.5634 14.0767 13.5338 14.1306C13.5049 14.1845 13.4596 14.2634 13.4338 14.3064C13.4072 14.3494 13.3557 14.4298 13.3189 14.4861C13.2815 14.5424 13.219 14.6306 13.1791 14.683C13.1401 14.7361 13.0635 14.833 13.0088 14.8979C12.9534 14.9635 12.8424 15.0854 12.7604 15.169C12.6784 15.2518 12.5628 15.3651 12.5026 15.4198C12.4425 15.4753 12.3456 15.5589 12.2878 15.6073C12.23 15.655 12.1261 15.737 12.0574 15.7886C11.9886 15.8409 11.8777 15.919 11.8113 15.9628C11.7449 16.0073 11.6301 16.0792 11.5574 16.1222C11.4848 16.1659 11.3489 16.2402 11.2567 16.2863C11.1645 16.3331 11.045 16.391 10.9911 16.4144C10.9372 16.4378 10.8388 16.4793 10.7724 16.5058C10.706 16.5324 10.574 16.58 10.4795 16.6113C10.3849 16.6425 10.2498 16.6847 10.1787 16.7043C10.1076 16.7238 9.98968 16.7535 9.91703 16.7707C9.84438 16.7879 9.7194 16.8144 9.63972 16.8293C9.56004 16.8449 9.43896 16.866 9.37022 16.8769C9.30148 16.8871 9.18743 16.9027 9.11635 16.9113C9.04526 16.9199 8.92965 16.9324 8.85857 16.9387C8.78748 16.9457 8.67734 16.9543 8.6125 16.959C8.54845 16.9629 8.40941 16.9699 8.30395 16.9746C8.19849 16.9785 8.04383 16.9824 7.96024 16.9824C7.87666 16.9824 7.72512 16.9785 7.62435 16.9746C7.52358 16.9699 7.36891 16.9613 7.28064 16.9551C7.19237 16.948 7.05567 16.9355 6.97599 16.9269C6.89631 16.9184 6.76117 16.9012 6.67525 16.8887C6.58932 16.8762 6.45965 16.8551 6.38622 16.8418C6.31279 16.8285 6.18156 16.8019 6.09329 16.7816C6.00502 16.7621 5.86285 16.7269 5.77692 16.7035C5.691 16.6801 5.55898 16.6418 5.48399 16.6175C5.409 16.5941 5.27699 16.5488 5.19106 16.5168C5.10513 16.4839 4.98015 16.4347 4.91375 16.4066C4.84735 16.3785 4.72627 16.323 4.64425 16.2839C4.56223 16.2441 4.43959 16.1808 4.37085 16.1425C4.30211 16.105 4.20525 16.0487 4.15603 16.0191C4.10682 15.9886 4.01543 15.93 3.95293 15.8886C3.89044 15.8472 3.80608 15.7893 3.76546 15.7597C3.72484 15.73 3.65063 15.6745 3.60141 15.6362C3.5522 15.5971 3.4694 15.5299 3.41784 15.4862C3.36629 15.4424 3.27177 15.3573 3.20693 15.2971C3.14288 15.237 3.05617 15.1526 3.01555 15.1104C2.97493 15.0674 2.90931 14.9979 2.87104 14.9549C2.83198 14.9119 2.7648 14.8346 2.72262 14.783C2.67966 14.7314 2.61404 14.6502 2.57811 14.6033C2.54139 14.5564 2.48437 14.4806 2.45234 14.4353C2.41953 14.39 2.35782 14.3001 2.31486 14.2361C2.27189 14.1712 2.20706 14.0697 2.17034 14.0095C2.13441 13.9493 2.07582 13.8485 2.04067 13.7845C2.00552 13.7212 1.94303 13.6016 1.90163 13.5188C1.86023 13.4368 1.79617 13.3024 1.76024 13.2204C1.72353 13.1383 1.66806 13.0071 1.63682 12.9274C1.60557 12.8477 1.55636 12.718 1.52902 12.6383C1.5009 12.5586 1.45715 12.425 1.43137 12.3414C1.4056 12.2578 1.3681 12.1312 1.34857 12.0601C1.32904 11.989 1.29545 11.857 1.27358 11.7671C1.25171 11.6773 1.215 11.5077 1.19156 11.3921C1.16813 11.2764 1.13844 11.1163 1.12594 11.0366C1.11266 10.9569 1.09157 10.8162 1.07908 10.724C1.0658 10.6318 1.04705 10.4732 1.03611 10.3725C1.02518 10.2717 1.00955 10.0974 1.00096 9.9857C0.992367 9.87397 0.98065 9.70364 0.975182 9.60676C0.969714 9.50362 0.965027 9.24579 0.965027 8.9817C0.965027 8.71761 0.969714 8.45978 0.975182 8.35664C0.98065 8.25976 0.992367 8.08943 1.00096 7.9777C1.00955 7.86598 1.02361 7.70815 1.03221 7.62611C1.04002 7.54407 1.05798 7.3964 1.07126 7.29796C1.08376 7.19951 1.10876 7.03231 1.12594 6.92683C1.14313 6.82135 1.17516 6.64946 1.19625 6.54398C1.21812 6.4385 1.25327 6.28068 1.27436 6.19239C1.29545 6.1041 1.32904 5.9744 1.34857 5.9033C1.3681 5.8322 1.4056 5.70562 1.43137 5.62202C1.45715 5.53842 1.5009 5.40482 1.52902 5.32512C1.55636 5.24543 1.60557 5.11573 1.63682 5.03603C1.66806 4.95634 1.72353 4.82429 1.76024 4.74304C1.79617 4.66178 1.86179 4.52271 1.90631 4.43442C1.95006 4.34613 2.01255 4.22658 2.04536 4.16877C2.07739 4.11095 2.13441 4.01407 2.17034 3.9539C2.20706 3.89374 2.27189 3.79139 2.31486 3.72732C2.35782 3.66247 2.41953 3.5734 2.45234 3.52808C2.48437 3.48277 2.54139 3.40776 2.57811 3.3601C2.61404 3.31244 2.68669 3.22337 2.73902 3.16086C2.79136 3.09836 2.88432 2.99288 2.94681 2.92647C3.00852 2.86006 3.11007 2.7577 3.17256 2.6991C3.23427 2.6405 3.3202 2.56159 3.36316 2.52409C3.40613 2.48658 3.4944 2.41314 3.55845 2.36157C3.62329 2.31001 3.73343 2.2264 3.80451 2.1764C3.8756 2.12561 3.97949 2.0553 4.03495 2.02014C4.09042 1.9842 4.18728 1.9256 4.24977 1.88887C4.31226 1.85215 4.42944 1.78808 4.51146 1.74589C4.59348 1.7037 4.71768 1.64354 4.78877 1.61151C4.85985 1.57947 4.98405 1.52712 5.06607 1.49431C5.1481 1.46227 5.27074 1.41618 5.33948 1.39274C5.40822 1.3693 5.52383 1.33257 5.59726 1.3107C5.67069 1.28882 5.78473 1.25679 5.85113 1.2396C5.91753 1.22241 6.03705 1.1935 6.11672 1.17631C6.1964 1.15834 6.32764 1.13256 6.40966 1.11771C6.49168 1.10365 6.61979 1.08255 6.69478 1.07161C6.76977 1.06067 6.89631 1.04505 6.97599 1.03645C7.05567 1.02786 7.19471 1.01536 7.28455 1.00833C7.37438 1.00129 7.51342 0.9927 7.5931 0.989574C7.67278 0.986449 7.82198 0.982542 7.92509 0.982542V0.982542ZM8.16334 9.20047C8.07976 9.20516 7.96571 9.21453 7.90947 9.22078C7.85401 9.22704 7.76574 9.23876 7.71418 9.24735C7.66262 9.25594 7.57435 9.27313 7.51889 9.28563C7.46343 9.29814 7.37594 9.32158 7.32595 9.33642C7.27517 9.35205 7.20096 9.37705 7.16191 9.39268C7.12207 9.4083 7.04551 9.44268 6.99161 9.47003C6.93771 9.49659 6.86429 9.53722 6.82757 9.56144C6.79086 9.58488 6.73852 9.62238 6.7104 9.64504C6.68228 9.66692 6.62994 9.7138 6.59479 9.74974C6.55886 9.7849 6.51042 9.83881 6.48777 9.8685C6.46434 9.89819 6.42762 9.95288 6.40575 9.9896C6.38388 10.0263 6.35263 10.0912 6.33545 10.1341C6.31904 10.1771 6.29795 10.242 6.28936 10.2787C6.27998 10.3154 6.26905 10.3818 6.26436 10.4271C6.25968 10.4725 6.25733 10.5459 6.25967 10.5912C6.2628 10.6365 6.26983 10.7029 6.27686 10.7397C6.28389 10.7764 6.29795 10.8342 6.30889 10.8686C6.31982 10.903 6.34404 10.9631 6.36201 11.0014C6.37997 11.0405 6.41044 11.0944 6.42918 11.1225C6.44793 11.1506 6.48465 11.1999 6.51121 11.2319C6.53777 11.2639 6.58385 11.3116 6.61354 11.3374C6.64322 11.3632 6.68306 11.3975 6.70259 11.4124C6.72212 11.428 6.76352 11.4569 6.79476 11.4772C6.82523 11.4968 6.88382 11.5304 6.92365 11.5507C6.96271 11.5718 7.03067 11.603 7.07364 11.621C7.1166 11.6382 7.1955 11.6655 7.24939 11.6812C7.30329 11.6976 7.38766 11.7187 7.43687 11.7288C7.48608 11.7382 7.57279 11.753 7.62825 11.7601C7.7009 11.7702 7.78605 11.7741 7.929 11.7741C8.04226 11.7741 8.16725 11.7702 8.21802 11.764C8.26724 11.7585 8.34144 11.7491 8.38206 11.7429C8.42268 11.7359 8.48127 11.7257 8.51095 11.7194C8.54064 11.7132 8.59923 11.6991 8.63985 11.6874C8.68046 11.6765 8.75311 11.6523 8.79998 11.6343C8.84685 11.6163 8.9195 11.5843 8.96012 11.564C9.00074 11.5437 9.06401 11.5077 9.10072 11.4835C9.13744 11.46 9.18821 11.4249 9.21399 11.4046C9.23977 11.385 9.29367 11.3374 9.33429 11.2983C9.37491 11.26 9.43428 11.1967 9.4663 11.1577C9.49911 11.1194 9.55301 11.0452 9.5866 10.9936C9.62097 10.942 9.67409 10.8491 9.70534 10.7866C9.73736 10.724 9.77877 10.6326 9.79829 10.5834C9.81782 10.5342 9.84751 10.4498 9.86469 10.3959C9.88188 10.342 9.90922 10.2506 9.92406 10.1927C9.93968 10.1349 9.96234 10.0349 9.97483 9.97007C9.98733 9.906 10.0069 9.79115 10.0178 9.71614C10.0287 9.64114 10.0428 9.52472 10.049 9.45831C10.0561 9.39189 10.0608 9.33642 10.0592 9.33564C10.0584 9.33486 10.0155 9.32548 9.9639 9.31454C9.91234 9.30439 9.81548 9.28642 9.74908 9.27548C9.68268 9.26454 9.5702 9.24813 9.49911 9.23954C9.42803 9.23094 9.30539 9.21922 9.22571 9.21219C9.14603 9.20594 8.99136 9.19735 8.882 9.19266C8.77264 9.18875 8.63516 9.18563 8.57735 9.18641C8.51955 9.18719 8.43675 9.18875 8.39378 9.19031C8.35082 9.19109 8.24693 9.19578 8.16334 9.20047V9.20047Z" fill="white"/>
</svg>
