<svg width="16" height="17" viewBox="0 0 16 17" fill="none" xmlns="http://www.w3.org/2000/svg">
<g clip-path="url(#clip0_325_1170)">
<path d="M4.67841 1.03837C3.82721 1.07853 3.24593 1.21437 2.73777 1.41405C2.21185 1.61901 1.76609 1.89405 1.32257 2.33917C0.879045 2.78429 0.605925 3.23037 0.402405 3.75709C0.205445 4.26637 0.0720055 4.84813 0.0344055 5.69981C-0.00319451 6.55149 -0.0115145 6.82525 -0.00735451 8.99773C-0.00319451 11.1702 0.00640549 11.4425 0.0476855 12.296C0.0883255 13.147 0.223685 13.7281 0.423365 14.2365C0.628645 14.7624 0.903365 15.208 1.34865 15.6517C1.79393 16.0953 2.23969 16.3678 2.76769 16.5717C3.27649 16.7683 3.85841 16.9024 4.70993 16.9397C5.56145 16.9769 5.83553 16.9856 8.00737 16.9814C10.1792 16.9773 10.4526 16.9677 11.3059 16.9272C12.1592 16.8867 12.7373 16.7504 13.2458 16.5517C13.7717 16.3459 14.2176 16.0717 14.661 15.6262C15.1043 15.1808 15.3773 14.7344 15.5806 14.2073C15.7778 13.6985 15.9117 13.1166 15.9486 12.2657C15.9859 11.4118 15.9947 11.1392 15.9906 8.96701C15.9864 6.79485 15.9766 6.52253 15.9362 5.66941C15.8957 4.81629 15.7602 4.23693 15.5606 3.72829C15.355 3.20237 15.0806 2.75709 14.6355 2.31309C14.1904 1.86909 13.7437 1.59629 13.2168 1.39341C12.7077 1.19645 12.1261 1.06221 11.2746 1.02541C10.423 0.988612 10.149 0.979172 7.97633 0.983332C5.80369 0.987492 5.53169 0.996772 4.67841 1.03837ZM4.77185 15.5005C3.99185 15.4665 3.56833 15.3369 3.28609 15.2285C2.91233 15.0845 2.64609 14.9104 2.36481 14.6318C2.08353 14.3533 1.91073 14.0861 1.76481 13.7131C1.65521 13.4309 1.52321 13.0078 1.48673 12.2278C1.44705 11.3848 1.43873 11.1317 1.43409 8.99581C1.42945 6.85997 1.43761 6.60717 1.47457 5.76381C1.50785 4.98445 1.63825 4.56045 1.74657 4.27837C1.89057 3.90413 2.06401 3.63837 2.34321 3.35725C2.62241 3.07613 2.88881 2.90301 3.26209 2.75709C3.54401 2.64701 3.96705 2.51613 4.74673 2.47901C5.59041 2.43901 5.84321 2.43101 7.97873 2.42637C10.1142 2.42173 10.3677 2.42973 11.2117 2.46685C11.991 2.50077 12.4152 2.62989 12.697 2.73885C13.0709 2.88285 13.337 3.05581 13.6181 3.33549C13.8992 3.61517 14.0725 3.88061 14.2184 4.25469C14.3286 4.53581 14.4595 4.95869 14.4963 5.73885C14.5365 6.58253 14.5456 6.83549 14.5494 8.97085C14.5533 11.1062 14.5458 11.3598 14.5088 12.2029C14.4747 12.9829 14.3454 13.4065 14.2368 13.6891C14.0928 14.0627 13.9192 14.3291 13.6398 14.6101C13.3605 14.891 13.0944 15.0641 12.721 15.2101C12.4394 15.32 12.0158 15.4512 11.2368 15.4883C10.3931 15.528 10.1403 15.5363 8.004 15.5409C5.86769 15.5456 5.61569 15.5369 4.77201 15.5005M11.2936 4.70669C11.2939 4.89658 11.3505 5.0821 11.4563 5.2398C11.5621 5.3975 11.7122 5.5203 11.8878 5.59266C12.0633 5.66501 12.2564 5.68369 12.4426 5.64631C12.6287 5.60893 12.7996 5.51718 12.9337 5.38267C13.0677 5.24815 13.1588 5.07692 13.1955 4.89061C13.2322 4.70431 13.2128 4.51131 13.1398 4.33602C13.0668 4.16073 12.9435 4.01102 12.7854 3.90584C12.6273 3.80065 12.4416 3.74471 12.2517 3.74509C11.9971 3.7456 11.7532 3.84719 11.5735 4.02751C11.3939 4.20784 11.2932 4.45214 11.2936 4.70669ZM3.88401 8.99037C3.88849 11.2592 5.73105 13.0942 7.99937 13.0899C10.2677 13.0856 12.104 11.2432 12.0997 8.97437C12.0954 6.70557 10.2523 4.87005 7.98369 4.87453C5.71505 4.87901 3.87969 6.72189 3.88401 8.99037ZM5.32497 8.98749C5.32392 8.46007 5.4793 7.94418 5.77146 7.50506C6.06361 7.06594 6.47942 6.72332 6.9663 6.52051C7.45318 6.31771 7.98926 6.26384 8.50675 6.36571C9.02425 6.46758 9.49991 6.72062 9.8736 7.09283C10.2473 7.46504 10.5022 7.9397 10.6061 8.45679C10.71 8.97388 10.6583 9.51017 10.4574 9.99785C10.2566 10.4855 9.91558 10.9027 9.47762 11.1966C9.03966 11.4905 8.52439 11.6479 7.99696 11.6489C7.64675 11.6497 7.29983 11.5814 6.976 11.448C6.65218 11.3147 6.35779 11.1188 6.10967 10.8717C5.86154 10.6246 5.66453 10.3309 5.52989 10.0077C5.39525 9.68436 5.32562 9.3377 5.32497 8.98749Z" fill="white"/>
</g>
<defs>
<clipPath id="clip0_325_1170">
<rect width="16" height="16" fill="white" transform="translate(-0.00830078 0.982422)"/>
</clipPath>
</defs>
</svg>
