<svg width="13" height="17" viewBox="0 0 13 17" fill="none" xmlns="http://www.w3.org/2000/svg">
<path d="M5.7125 15.8175C1.15 9.255 0.3375 8.5675 0.3375 6.13C0.3375 2.8175 2.99375 0.130005 6.3375 0.130005C9.65 0.130005 12.3375 2.8175 12.3375 6.13C12.3375 8.5675 11.4937 9.255 6.93125 15.8175C6.65 16.255 5.99375 16.255 5.7125 15.8175ZM6.3375 8.63C7.7125 8.63 8.8375 7.53625 8.8375 6.13C8.8375 4.755 7.7125 3.63 6.3375 3.63C4.93125 3.63 3.8375 4.755 3.8375 6.13C3.8375 7.53625 4.93125 8.63 6.3375 8.63Z" fill="#4E4E4E"/>
</svg>
