<svg width="48" height="48" viewBox="0 0 48 48" fill="none" xmlns="http://www.w3.org/2000/svg">
<path d="M6.61111 23.7776C6.61111 23.6387 8.19445 22.611 10.1389 21.4165C12.1111 20.2499 13.7778 19.2776 13.9167 19.2776C14.0278 19.2499 14.1111 21.2499 14.1111 28.1387L13.2222 27.5832C12.7222 27.2776 12.1667 27.0276 12.0278 27.0276C11.8889 27.0276 10.9722 28.361 10.0556 29.9999C9.11111 31.6387 7.94444 33.7221 6.61111 36.1943L7.86111 37.6387L21.8889 37.9999V38.7776C21.8889 39.1943 21.9444 39.5276 22.0278 39.5276C22.1111 39.5276 23.8611 38.5276 29.6667 35.0832V36.3332C29.6667 37.0276 29.75 37.6387 29.8611 37.6943C30 37.7499 32.4444 37.7221 40.6111 37.4443L40.8611 36.611C41.0833 35.861 40.8056 35.1943 37.7778 29.8054C35.3056 25.3332 34.5278 23.7499 34.7778 23.4999C34.9444 23.3332 35.6389 22.861 37.5833 21.8054L39 24.3332C39.7778 25.7499 41.3333 28.4999 42.4722 30.4999C44.5 34.0554 44.5278 34.1387 44.5278 36.0832C44.5278 37.7221 44.4167 38.2221 43.8056 39.1387C43.4167 39.7221 42.6111 40.4721 42 40.7776C41.0278 41.2776 40.2778 41.3332 29.6667 41.4721L29.5278 43.9999L25.7778 41.8887C22.9722 40.3054 21.9722 39.861 21.8333 40.1387C21.7222 40.3332 21.6111 40.7499 21.6111 41.0554C21.6111 41.611 21.4722 41.611 14.6111 41.4999C9.75 41.4443 7.33333 41.3054 6.75 41.0554C6.27778 40.861 5.5 40.3332 4.97222 39.9165C4.44444 39.4721 3.77778 38.611 3.52778 37.9999C3.25 37.3887 3 36.4443 3 35.9165C3 35.1943 3.72222 33.6665 5.77778 29.9443C7.33333 27.1943 8.52778 24.9165 8.5 24.9165L7.5 24.4165C7.02778 24.1665 6.61111 23.8887 6.61111 23.7776Z" stroke="#2E2E2E" stroke-width="1.25"/>
<path d="M28.8281 30.8602C28.8281 30.6657 29.2726 29.2213 29.8559 27.6657C30.7726 25.0546 30.9392 24.8046 31.5781 24.8046C32.2448 24.7768 32.3837 25.0268 33.3559 27.7768C33.9115 29.4435 34.3837 30.8602 34.3837 30.999C34.3837 31.1102 34.1337 31.1935 33.8281 31.1935C33.4948 31.1935 33.1615 30.9157 32.9948 30.499C32.7448 29.9157 32.5503 29.8046 31.467 29.8046C30.3559 29.8046 30.1892 29.8879 30.0781 30.499C29.9855 30.962 29.7541 31.1935 29.3837 31.1935C29.0781 31.1935 28.8281 31.0268 28.8281 30.8602Z" fill="#2E2E2E"/>
<path d="M30.7734 28.6389C30.7734 28.5833 30.9123 28.1389 31.079 27.6667C31.2457 27.1667 31.4957 26.75 31.6623 26.75C31.829 26.75 31.9957 26.9722 32.0234 27.25C32.079 27.5 32.1623 27.9444 32.2734 28.2222C32.4123 28.6111 32.2734 28.6944 31.6068 28.6944C31.1623 28.6944 30.7734 28.6667 30.7734 28.6389Z" fill="white"/>
<path d="M23.2726 31.194V27.8607C23.2726 24.7218 23.3003 24.5273 23.8281 24.5273C24.3559 24.5273 24.3837 24.7218 24.3837 30.0829H26.0503C27.5226 30.0829 27.717 30.1385 27.717 30.6385C27.717 31.1385 27.5226 31.194 23.2726 31.194Z" fill="#2E2E2E"/>
<path d="M16.3281 31.194V27.8607V24.5273H18.4115C19.8837 24.5273 20.6059 24.6385 20.9115 24.944C21.1337 25.1662 21.3281 25.8607 21.3281 26.4718C21.3281 27.2125 21.1429 27.7681 20.7726 28.1385C20.3837 28.5273 19.8559 28.694 17.717 28.694V29.944C17.717 31.0829 17.6615 31.194 16.3281 31.194Z" fill="#2E2E2E"/>
<path d="M18.6432 27.5836C17.7543 27.5836 17.7266 27.5558 17.7266 26.4724C17.7266 25.4169 17.7821 25.3613 18.5599 25.3613C19.0321 25.3613 19.5877 25.5558 19.8099 25.778C20.0321 26.0002 20.2266 26.3613 20.2266 26.528C20.2266 26.7224 20.0877 27.0558 19.8932 27.2224C19.6988 27.4169 19.1432 27.5836 18.6432 27.5836Z" fill="white"/>
<path d="M20.4965 5.30556C20.8854 5.02778 21.691 4.61111 22.3021 4.38889C22.9132 4.16667 23.7743 4 24.2465 4C24.7188 4 25.5799 4.22222 26.191 4.5C26.8021 4.77778 27.4965 5.25 27.7465 5.52778C27.9965 5.80556 29.3021 7.94444 30.6354 10.2222C31.9965 12.5278 33.191 14.5278 33.3021 14.6667C33.441 14.8333 33.9132 14.7222 34.5799 14.3056C35.1632 13.9722 35.6632 13.7222 35.691 13.75C35.7465 13.8056 35.7465 15.7778 35.6354 22.5L32.0243 20.4444C30.0243 19.3333 28.3854 18.3056 28.3299 18.1944C28.3021 18.0833 28.691 17.75 29.2465 17.4444C29.7743 17.1389 30.2188 16.8611 30.2188 16.8333C30.2188 16.7778 29.691 15.8333 29.0243 14.75C28.3576 13.6389 27.2188 11.6667 26.441 10.3889C25.691 9.11111 24.8576 7.97222 24.5799 7.83333C24.2743 7.66667 23.8299 7.72222 23.3299 7.97222C22.8021 8.25 21.5799 10.0278 19.1632 14.0833C17.3021 17.2222 15.691 19.8056 15.5521 19.8056C15.441 19.8056 14.7188 19.4167 12.4688 18L16.1354 11.9167C18.1632 8.55556 20.1076 5.58333 20.4965 5.30556Z" stroke="#2E2E2E" stroke-width="1.25"/>
</svg>
