<svg width="132" height="55" viewBox="0 0 132 55" fill="none" xmlns="http://www.w3.org/2000/svg">
<mask id="mask0_325_1149" style="mask-type:alpha" maskUnits="userSpaceOnUse" x="0" y="0" width="132" height="55">
<g clip-path="url(#clip0_325_1149)">
<path d="M41.2399 40.1366V42.1487H40.093V40.1366L38.3092 37.4004H39.6972L40.7097 39.1572L41.7222 37.4004H43.0636L41.2399 40.1366Z" fill="white"/>
<path d="M51.6028 42.1481L51.2347 41.216H49.3974L49.0489 42.1481H47.8014L49.7932 37.4004H50.9064L52.878 42.1481H51.6028ZM50.3289 38.6676L49.7257 40.2974H50.9162L50.3289 38.6676Z" fill="white"/>
<path d="M61.1453 38.6388C61.0412 38.515 60.9121 38.4145 60.7665 38.344C60.6209 38.2734 60.462 38.2344 60.3003 38.2295C60.0051 38.2295 59.6363 38.3302 59.6363 38.7057C59.6363 39.0211 59.918 39.1212 60.3672 39.2623C61.0109 39.4703 61.8399 39.7446 61.8399 40.6902C61.8399 41.7831 60.9618 42.2728 60.0223 42.2728C59.3621 42.2881 58.7226 42.0423 58.2428 41.5886L58.9939 40.824C59.1201 40.975 59.2767 41.0977 59.4534 41.1843C59.6302 41.2709 59.8232 41.3194 60.0199 41.3266C60.3684 41.3266 60.6771 41.1928 60.6771 40.8099C60.6771 40.4478 60.315 40.3337 59.6916 40.1349C59.0884 39.9404 58.4778 39.6317 58.4778 38.7738C58.4778 37.7208 59.4302 37.2852 60.315 37.2852C60.8869 37.286 61.4393 37.4932 61.8706 37.8687L61.1453 38.6388Z" fill="white"/>
<path d="M70.9625 42.1494V40.1637H69.1137V42.1488H67.9674V37.4023H69.1137V39.1997H70.965V37.4023H72.1113V42.15L70.9625 42.1494Z" fill="white"/>
<path d="M82.7557 42.1494L82.7827 38.7898H82.7624L81.5284 42.1494H80.7233L79.523 38.7898H79.5028L79.5298 42.1494H78.4498V37.4023H80.079L81.159 40.4466H81.1854L82.2181 37.4023H83.875V42.15L82.7557 42.1494Z" fill="white"/>
<path d="M93.4388 42.1481L93.0706 41.216H91.2334L90.8848 42.1481H89.6373L91.6292 37.4004H92.7423L94.7145 42.1481H93.4388ZM92.1649 38.6676L91.561 40.2974H92.7546L92.1649 38.6676Z" fill="white"/>
<path d="M102.747 42.272C102.411 42.287 102.075 42.234 101.76 42.1163C101.445 41.9986 101.157 41.8186 100.914 41.587C100.67 41.3554 100.475 41.077 100.342 40.7685C100.208 40.46 100.138 40.1276 100.136 39.7914C100.133 39.4552 100.199 39.1219 100.328 38.8116C100.458 38.5013 100.649 38.2203 100.889 37.9855C101.13 37.7506 101.415 37.5667 101.729 37.4448C102.042 37.3228 102.377 37.2653 102.713 37.2758C103.38 37.2529 104.032 37.4776 104.544 37.9066L103.819 38.7313C103.619 38.5214 103.36 38.3773 103.076 38.3183C102.792 38.2593 102.497 38.2881 102.23 38.401C101.963 38.5138 101.736 38.7053 101.581 38.95C101.425 39.1947 101.348 39.481 101.359 39.7708C101.341 39.9677 101.365 40.1662 101.431 40.3527C101.496 40.5392 101.602 40.7093 101.739 40.8513C101.877 40.9934 102.043 41.104 102.228 41.1756C102.412 41.2472 102.61 41.2781 102.807 41.2662C103.052 41.2722 103.296 41.2288 103.524 41.1386V40.2734H102.619V39.348H104.577V41.8639C104.008 42.1429 103.381 42.2832 102.747 42.2732" fill="white"/>
<path d="M113.878 42.1494V40.1637H112.026V42.1488H110.879V37.4023H112.026V39.1997H113.877V37.4023H115.024V42.15L113.878 42.1494Z" fill="white"/>
<path d="M24.8034 24.7102C24.6958 24.7105 24.5884 24.7011 24.4825 24.682C24.3833 24.6692 24.2878 24.6364 24.2016 24.5857C24.1154 24.535 24.0404 24.4673 23.9811 24.3868C23.8405 24.1378 23.802 23.8439 23.8737 23.567C24.0529 22.6134 24.9347 21.8445 26.2933 21.4573C26.4312 21.416 26.5741 21.3939 26.7179 21.3917C26.837 21.3853 26.9558 21.4079 27.0642 21.4577C27.1726 21.5074 27.2673 21.5826 27.3402 21.677C27.4843 21.8914 27.5563 22.1461 27.5457 22.4042C27.5464 22.651 27.4949 22.8953 27.3948 23.1209C27.1313 23.5822 26.7558 23.9697 26.303 24.2476C25.8502 24.5255 25.3346 24.6848 24.804 24.7108L24.8034 24.7102Z" fill="white"/>
<path d="M3.63744 39.2184C2.96171 39.2906 2.28375 39.1035 1.7407 38.695C1.4718 38.4717 1.28166 38.168 1.19824 37.8285C0.846013 36.168 3.45397 33.8835 8.03047 30.8079C8.28829 30.6293 8.58112 30.5076 8.88956 30.4508C9.0182 30.4278 9.14856 30.4159 9.27922 30.4152C9.49011 30.3985 9.70131 30.4433 9.88733 30.544C10.0591 30.6687 10.1981 30.8331 10.2923 31.0233C10.3362 31.1117 10.362 31.2079 10.3685 31.3063C10.3749 31.4048 10.3618 31.5035 10.3298 31.5969C10.2979 31.6902 10.2477 31.7763 10.1823 31.8502C10.1169 31.924 10.0375 31.9842 9.94869 32.0272C9.44674 32.4046 8.88772 32.8096 8.34649 33.2011C7.51808 33.8012 6.7357 34.367 6.30063 34.7352C5.75273 35.1777 5.23356 35.6546 4.74629 36.1631C4.66099 36.2576 4.59349 36.3374 4.53888 36.4037L4.32226 36.6681L4.70272 36.6442C5.32044 36.5857 5.92898 36.4536 6.5154 36.2509C7.44397 35.9494 8.34839 35.5781 9.22092 35.1402C11.2365 34.1884 13.0174 32.8039 14.4368 31.0853C15.3714 29.8672 15.3683 28.7964 14.4282 27.7133C13.8714 27.0538 13.201 26.4993 12.4486 26.0762C11.4668 25.5024 10.5906 24.9937 9.76767 24.5218C8.93374 24.0763 8.13908 23.6241 7.40088 23.1767C6.70464 22.7625 6.05727 22.2711 5.47099 21.712C3.73072 19.9705 4.34313 18.2922 5.16417 17.1907C6.01909 16.0147 7.02067 14.9527 8.1446 14.0305C9.26207 13.1044 10.4491 12.2655 11.6951 11.5213C12.9007 10.8019 14.1526 10.1632 15.4426 9.60923C16.6649 9.0858 17.8358 8.61821 18.9225 8.21873C21.5063 7.29363 24.1613 6.58129 26.8611 6.0888C28.7453 5.72819 30.6553 5.51889 32.5729 5.46289C32.6502 5.46289 32.7465 5.46289 32.841 5.46289C33.6179 5.46289 35.981 5.46289 36.1632 6.82578C36.199 7.18301 36.1139 7.54191 35.9215 7.84503C35.6117 8.31539 35.2016 8.71127 34.7206 9.00419C34.3807 9.25422 33.9728 9.39504 33.551 9.40796C33.368 9.41617 33.1858 9.37848 33.0211 9.29831C32.8564 9.21815 32.7143 9.09805 32.6078 8.94896C32.5204 8.8486 32.4576 8.72921 32.4245 8.6003C32.3914 8.4714 32.3888 8.33653 32.417 8.20646L32.4483 8.04139L32.2507 8.02912C32.0881 8.01869 31.9132 8.01316 31.7303 8.01316C31.4382 8.01316 31.1167 8.02666 30.7804 8.05305C30.1876 8.09969 29.5403 8.17087 28.8561 8.26475C26.873 8.53207 24.9105 8.93473 22.9823 9.46993C21.045 10.0004 19.1396 10.6412 17.2755 11.3894C15.4291 12.1796 13.66 13.1394 11.9909 14.2563C10.4968 15.2122 9.17833 16.418 8.09306 17.8209C7.81815 18.2063 7.29533 19.3814 8.14276 20.1926C8.61163 20.6671 9.14401 21.0744 9.72472 21.4027C10.4077 21.8028 11.1422 22.2225 11.9694 22.6858L14.7805 24.3469C15.6711 24.8541 16.4754 25.4998 17.1632 26.2596C17.9174 27.1285 18.2463 27.6096 18.2297 28.5645C18.196 29.8339 17.7156 31.0508 16.873 32.0008C16.0588 33.078 15.1027 34.0401 14.0306 34.861C12.858 35.7699 11.5991 36.5618 10.2721 37.2253C9.131 37.7798 7.95311 38.2551 6.74674 38.6477C5.74503 38.9948 4.69646 39.1878 3.63683 39.2202" fill="white"/>
<path d="M130.43 30.4116C130.207 30.2389 129.956 30.1044 129.689 30.0133C128.548 29.5714 127.335 29.3464 126.111 29.35C124.957 29.362 123.81 29.5289 122.7 29.8464C121.322 30.212 119.916 30.4636 118.497 30.5987C118.184 30.6257 117.867 30.6448 117.557 30.6552C117.434 30.6595 117.312 30.6619 117.189 30.6619C116.834 30.668 116.479 30.6334 116.132 30.5589C115.58 30.4594 115.086 30.1552 114.749 29.7071L114.609 29.4488L114.901 29.4813C115.365 29.5357 115.83 29.565 116.297 29.5691C116.628 29.5725 116.96 29.5481 117.287 29.496C117.91 29.3958 118.498 29.1428 118.999 28.7597C119.243 28.596 119.444 28.3758 119.584 28.1178C119.725 27.8597 119.801 27.5716 119.807 27.2777C119.833 26.9179 119.77 26.5571 119.623 26.2278C119.425 25.88 119.132 25.5958 118.779 25.4086C117.915 24.9461 116.922 24.7821 115.955 24.9423C114.988 25.1024 114.101 25.5776 113.432 26.2941C113.147 26.5712 112.909 26.8919 112.726 27.244L112.677 27.3428L112.568 27.3287C111.003 27.1207 110.188 26.4898 110.042 26.1413L110.03 26.1131V26.0879C110.031 25.7095 109.977 25.333 109.868 24.9705C109.825 24.8206 109.738 24.6874 109.617 24.5887C109.497 24.4899 109.349 24.4305 109.193 24.4182C109.146 24.4118 109.099 24.4086 109.051 24.4084C108.914 24.4038 108.779 24.4422 108.666 24.5182C108.504 24.6353 108.367 24.7836 108.263 24.9545C108.137 25.1567 108.028 25.369 107.937 25.589C107.841 25.8171 107.734 26.0397 107.614 26.256C107.135 27.2018 106.512 28.0674 105.767 28.8217L105.363 29.2297L105.509 28.6774C105.583 28.5006 105.617 28.3098 105.61 28.1182C105.603 27.9266 105.555 27.7389 105.468 27.568C105.384 27.4799 105.28 27.4124 105.166 27.3708C105.051 27.3292 104.929 27.3145 104.808 27.3281C102.96 27.3281 98.8676 30.006 98.8265 30.033L98.8185 30.0379L98.8099 30.0422C98.6315 30.1446 98.4331 30.2074 98.2282 30.2263C98.1685 30.2313 98.1086 30.2188 98.0559 30.1902C98.0032 30.1617 97.9601 30.1183 97.9318 30.0655C97.7667 29.7489 98.2073 29.061 98.4043 28.7799C98.6792 28.3878 99.4278 27.0771 99.3567 26.8028C99.2984 26.6191 99.1815 26.4596 99.0239 26.3488C98.8662 26.238 98.6766 26.1819 98.4841 26.1892C98.0385 26.1912 97.5997 26.2978 97.2028 26.5003C96.9692 26.6468 96.7438 26.8062 96.5278 26.9777C95.0997 28.1191 93.5221 29.0597 91.839 29.7734C91.3271 29.9553 90.7867 30.044 90.2435 30.0354H89.9514L90.1165 29.7949C90.3524 29.4548 90.5529 29.0915 90.7148 28.7106C90.7621 28.6095 90.8148 28.5109 90.8725 28.4154C91.1941 27.8539 91.793 26.8095 91.2204 26.0677C91.1273 25.9328 91.0004 25.8249 90.8523 25.7547C90.7619 25.7108 90.663 25.6874 90.5626 25.686C90.5214 25.686 90.4803 25.6901 90.4399 25.6982C90.0595 25.7657 89.6887 25.8789 89.3354 26.0351C88.9627 26.1996 88.5986 26.3827 88.2443 26.5837C87.615 26.9454 87.0078 27.3444 86.4261 27.7785C86.3204 27.8586 86.2208 27.9464 86.1279 28.0411C86.0388 28.1511 85.9254 28.2389 85.7965 28.2974C85.6676 28.3558 85.5268 28.3835 85.3854 28.378C85.359 28.378 85.3314 28.378 85.3025 28.378L85.1798 28.3725L85.159 28.2497C85.1799 27.7129 85.3548 27.1934 85.6627 26.7531C85.7327 26.6242 85.7984 26.5033 85.8468 26.4045C86.1242 25.821 86.4329 25.2214 86.7894 24.571C87.4822 23.3112 88.2443 22.0809 88.9653 20.9284C89.5379 20.0141 90.0085 19.1409 90.3491 18.4825L90.3927 18.399H90.4865C92.8951 18.4205 93.7707 18.4506 93.7738 18.4506C94.6145 18.4506 95.4637 18.4616 96.2989 18.4837C97.1022 18.5058 97.952 18.5389 98.8203 18.5831C103.634 18.6375 108.434 19.0982 113.17 19.9601C113.347 20.0068 113.505 20.1081 113.621 20.2498C113.703 20.3452 113.777 20.4479 113.842 20.5566C113.869 20.5983 113.895 20.6407 113.923 20.6793C114.089 20.926 114.317 21.1248 114.584 21.2561C114.851 21.3873 115.147 21.4463 115.444 21.4273C115.588 21.4266 115.732 21.4165 115.874 21.3973L115.962 21.3856C116.426 21.3242 116.827 21.2745 117.081 20.872C117.198 20.6923 117.272 20.4883 117.297 20.2755C117.323 20.0628 117.3 19.847 117.229 19.6447C117.11 19.323 116.922 19.0318 116.676 18.7922C116.431 18.5527 116.136 18.3708 115.811 18.2597C113.432 17.3055 111.337 17.2405 108.801 16.9527C104.996 16.5055 101.169 16.2681 97.3384 16.2415C96.0498 16.2415 94.828 16.2034 93.4946 16.2145C93.0117 16.2188 91.5309 16.193 91.5309 16.193L91.6537 15.9647C92.152 15.0345 92.6079 14.2668 93.0871 13.5476C93.1055 13.5206 93.1221 13.493 93.1374 13.466L93.1436 13.4556L93.4633 13.0659C93.6114 12.8484 93.6984 12.5952 93.7155 12.3326C93.7388 12.0722 93.7062 11.8099 93.6198 11.5631C93.559 11.3708 93.4395 11.2023 93.278 11.0814C93.2132 11.0363 93.136 11.0123 93.0571 11.0127C92.9719 11.0159 92.8883 11.0368 92.8116 11.0741C92.475 11.2317 92.183 11.4707 91.9617 11.7693L91.9544 11.7785L91.9458 11.7865C91.8587 11.8649 91.7823 11.9544 91.7187 12.0528L91.6021 12.2707C91.2137 12.8647 90.8694 13.3629 90.5749 13.7575C89.9318 14.5552 89.3108 15.3358 88.7309 16.0801L88.626 16.2163H88.5517C80.4947 16.3041 72.3517 16.7422 64.3481 17.5185C62.7618 17.6719 61.075 17.8388 59.4181 18.0309C58.6634 18.1186 57.8411 18.2444 56.9022 18.415C56.7071 18.4506 56.4985 18.4807 56.2782 18.5126C55.6638 18.5671 55.0609 18.7118 54.4888 18.9421L54.4747 18.9489L54.4593 18.9532C54.2755 18.9775 54.1065 19.0668 53.9827 19.2049C53.8589 19.343 53.7886 19.5207 53.7843 19.7061C53.7715 19.9515 53.8279 20.3081 54.4722 20.513C54.5827 20.5516 54.6989 20.5711 54.8159 20.5707C54.9478 20.5689 55.0788 20.5483 55.2049 20.5093C55.4809 20.4272 55.7611 20.36 56.0444 20.3081C57.098 20.0878 58.154 19.9202 59.1831 19.8092C60.1895 19.7018 61.2388 19.5791 62.3077 19.4447C65.1814 19.1827 68.1078 18.9709 71.0042 18.8151C73.8398 18.6635 76.765 18.5408 79.6988 18.4506C81.1715 18.407 82.6148 18.3849 83.9943 18.3849H86.9796L86.8188 18.6242C84.879 21.4567 82.6457 24.0765 80.156 26.4401C76.8037 29.2494 74.4326 30.1312 73.8018 30.2342L73.5115 30.2815L73.6385 30.0158C73.8395 29.6261 73.9365 29.1911 73.9202 28.7529C73.8752 28.5254 73.7787 28.3112 73.6381 28.1268C73.4975 27.9423 73.3165 27.7925 73.109 27.6889C72.7105 27.4926 72.2731 27.3878 71.8289 27.3821C71.7223 27.382 71.6157 27.3884 71.5098 27.4011L71.427 27.4109L71.3736 27.3495C71.2937 27.2551 71.2034 27.1701 71.1042 27.0961C70.9909 27.0134 70.8701 26.9415 70.7434 26.8813C70.1526 26.5274 69.5045 26.2797 68.8282 26.1493C68.5247 26.1118 68.2192 26.0929 67.9133 26.0928C67.5402 26.0932 67.1676 26.1201 66.7983 26.1732C66.2558 26.2819 65.7285 26.4562 65.228 26.6923C65.109 26.7451 64.9826 26.8046 64.8267 26.8862L64.7997 26.9004H64.7697C64.6608 26.9094 64.5532 26.93 64.4487 26.9617C63.9713 27.1078 63.5399 27.252 63.1601 27.3913C62.3863 27.6557 61.5971 27.9362 60.8148 28.2246C60.0324 28.513 59.2524 28.7953 58.5155 29.0554C58.1237 29.2232 57.7228 29.3687 57.3146 29.4911C56.9243 29.6077 56.5273 29.7366 56.1346 29.8685L55.8363 29.9698L55.94 29.6722C56.0686 29.3279 56.0965 28.9541 56.0204 28.5946C55.9587 28.4045 55.8577 28.2295 55.7241 28.0809C55.5905 27.9323 55.4272 27.8134 55.2448 27.7318C54.9263 27.5433 54.5654 27.4378 54.1955 27.425C54.1169 27.4219 54.0378 27.4201 53.9592 27.4201C53.6379 27.4204 53.3172 27.4466 53.0001 27.4987C52.5987 27.5656 52.2035 27.6651 51.8182 27.7963C51.4329 27.9282 51.0604 28.0472 50.7137 28.1503L48.5126 28.8585C47.7762 29.0953 47.0307 29.3003 46.2992 29.4678L45.9924 29.5384L46.1249 29.2537C46.2545 28.9785 46.3288 28.6806 46.3434 28.3768C46.3369 28.0354 46.2205 27.7053 46.0114 27.4354C45.899 27.2672 45.7387 27.1366 45.5512 27.0605C45.3605 26.9841 45.157 26.9448 44.9517 26.9445C44.8852 26.9449 44.8189 26.9506 44.7535 26.9617L44.7258 26.966L44.6988 26.9605C44.6601 26.9526 44.6206 26.9484 44.581 26.9482C44.5057 26.9484 44.4313 26.9637 44.362 26.993L43.498 27.352C41.6037 28.1374 39.6449 28.9474 37.4285 30.1134L37.0431 30.3159L37.2162 29.9164C37.2837 29.7605 37.3514 29.6051 37.4193 29.45C37.542 29.1751 37.6592 28.8977 37.7758 28.6253C37.8258 28.4816 37.8411 28.3282 37.8204 28.1775C37.7997 28.0267 37.7436 27.8831 37.6568 27.7582C37.46 27.4283 37.1591 27.1733 36.8013 27.0335L36.7964 27.0783L36.6878 27.1096L36.5694 27.1305L36.508 27.0317L36.4694 26.9648L36.4307 26.9034C36.1495 26.4424 35.751 26.0643 35.2759 25.8076C34.8008 25.5509 34.2661 25.4249 33.7264 25.4424C32.6736 25.4869 31.649 25.7954 30.7466 26.3395C30.0841 26.7109 29.4785 27.176 28.9486 27.7202C28.9308 27.7352 28.9138 27.7511 28.8977 27.768C27.7599 28.9201 26.4338 29.8696 24.9766 30.5754C24.0145 31.0462 23.0167 31.4399 21.9925 31.753L21.4635 31.8935L21.8421 31.4983C22.1103 31.2185 22.3741 30.9283 22.6282 30.6356C22.8212 30.395 23.0369 30.1737 23.2725 29.9747C26.6708 27.0937 25.087 26.3229 24.9158 26.2425C23.988 25.8099 22.1005 26.7752 21.6967 26.9224C21.3446 27.0392 21.0279 27.2433 20.7762 27.5158C20.5377 27.8036 20.4197 28.1724 20.4469 28.5451C20.4741 28.9179 20.6445 29.2657 20.9223 29.5157L20.1736 30.2269C19.4581 30.9117 18.8396 31.5032 18.7181 31.6149C18.4289 31.8797 18.1596 32.1654 17.9124 32.4697C17.7216 32.6872 17.5942 32.953 17.5442 33.238C17.5387 33.3537 17.5678 33.4683 17.6276 33.5675C17.6875 33.6666 17.7755 33.7456 17.8805 33.7946C18.0896 33.9197 18.3278 33.9883 18.5714 33.9934C18.6745 33.9989 18.7782 34.002 18.8819 34.002C19.0869 34.0017 19.2917 33.9906 19.4956 33.9688C20.4728 33.8628 21.4406 33.6831 22.3907 33.4313C23.757 33.0493 25.0719 32.5033 26.3069 31.8051L26.6401 31.6051L26.534 31.9788C26.4585 32.2451 26.3996 32.4795 26.3542 32.6931L26.3493 32.7103C26.3122 32.9024 26.3182 33.1004 26.367 33.2899C26.4157 33.4794 26.5058 33.6558 26.6309 33.8062C26.7329 33.9728 26.872 34.1136 27.0373 34.2177C27.2026 34.3218 27.3896 34.3863 27.5839 34.4064C27.6676 34.4067 27.7507 34.3921 27.8294 34.3634C29.4047 33.6935 30.8812 32.8117 32.2181 31.7426C32.9373 31.2191 33.6816 30.6779 34.4425 30.2085L34.8684 29.9446L34.664 30.4018C34.2511 31.3259 33.8596 32.185 33.4662 33.0275L33.4521 33.0576L33.4263 33.0791C32.2482 34.0771 31.1398 35.1547 30.109 36.3043C27.1427 39.6278 23.872 44.5584 25.1386 49.176C25.238 49.5405 25.9492 50.5045 26.4886 50.5045C26.5769 50.499 26.6619 50.4692 26.7343 50.4184C26.8068 50.3676 26.8638 50.2978 26.8991 50.2167C29.8568 45.1947 32.6096 39.969 35.0819 34.68L35.096 34.6494L35.1218 34.6279C37.6064 32.5544 40.3445 30.8053 43.2703 29.4224L43.725 29.2144L43.4605 29.6525C43.2917 29.9289 43.1546 30.2235 43.0518 30.5306C42.9615 30.799 42.9404 31.0858 42.9905 31.3646C43.07 31.6723 43.2567 31.9417 43.517 32.1242C43.7229 32.2676 43.9584 32.3628 44.2061 32.4028C44.3073 32.4108 44.4098 32.4151 44.5129 32.4151C44.8288 32.4141 45.1436 32.3772 45.4512 32.3053C45.8894 32.2023 46.3199 32.0692 46.7398 31.907L48.0517 31.4014C48.5089 31.2259 48.9188 31.0768 49.3134 30.9424L51.0929 30.4367C51.6969 30.2656 52.3141 30.1455 52.9381 30.0778L53.1517 30.0544L53.105 30.2643C52.9985 30.7318 53.0197 31.2192 53.1664 31.6757C53.2189 31.8762 53.3124 32.0637 53.4409 32.2263C53.5694 32.389 53.7302 32.5232 53.9132 32.6207C54.1841 32.7517 54.4818 32.8181 54.7827 32.8146C54.8441 32.8146 54.9104 32.8146 54.9754 32.8072C55.3951 32.7724 55.8095 32.69 56.2107 32.5618C56.6292 32.4286 57.0452 32.2764 57.4471 32.1107C57.8491 31.9451 58.2191 31.8039 58.5327 31.7045C59.5402 31.3363 60.6043 30.8957 61.6947 30.395C61.7395 30.3742 61.7843 30.3551 61.8297 30.3337L62.0942 30.2177L62.1016 30.4447C62.1096 30.8009 62.1843 31.1525 62.3219 31.4811C62.4018 31.7096 62.5385 31.9139 62.7192 32.0749C62.8999 32.2359 63.1185 32.3484 63.3546 32.4016C63.5922 32.4492 63.8339 32.4734 64.0762 32.474C64.3098 32.474 64.5428 32.45 64.7715 32.4022C65.5116 32.2286 66.2314 31.9779 66.9192 31.6542C67.6409 31.3167 68.3785 31.0093 69.1117 30.7393C69.6707 30.538 70.2454 30.3836 70.8299 30.2778L71.0754 30.2342L71.0036 30.4736C70.8723 30.8793 70.865 31.3149 70.9827 31.7248C71.052 31.9285 71.161 32.1165 71.3033 32.2779C71.4455 32.4394 71.6184 32.5711 71.8117 32.6655C72.1813 32.8099 72.5748 32.8829 72.9715 32.8809C73.0126 32.8809 73.0531 32.8809 73.0942 32.8809C73.569 32.8624 74.0398 32.7878 74.497 32.6587C74.5437 32.6463 74.591 32.6362 74.6388 32.6286C75.0918 32.535 75.5269 32.3693 75.9274 32.1377C77.1433 31.5781 78.3026 30.9027 79.3889 30.1207L79.4043 30.1103C80.8347 29.078 82.1371 27.8789 83.2837 26.5383L83.885 25.8492C83.4841 26.804 83.1402 27.7818 82.8554 28.7775C82.7076 29.3041 82.7 29.8602 82.8333 30.3907C82.9486 30.5945 83.1194 30.7615 83.3257 30.8723C83.5321 30.983 83.7656 31.0331 83.9992 31.0166H84.0452C84.5868 31.0056 85.1133 30.8367 85.5603 30.5306C86.0972 30.1839 86.6077 29.8458 87.0784 29.5261C87.3202 29.361 87.5754 29.1917 87.8577 29.0088L88.2873 28.7314L88.0835 29.199C88.0019 29.3874 87.9332 29.5599 87.8743 29.7249C87.733 30.1001 87.6704 30.5003 87.6902 30.9006C87.7097 31.2424 87.8454 31.5672 88.075 31.8211C88.3857 32.1196 88.7867 32.3067 89.2151 32.3531C89.5071 32.4075 89.8035 32.4348 90.1006 32.4347C90.7314 32.4289 91.3569 32.3179 91.9513 32.1064C92.9104 31.7751 93.8812 31.386 94.8354 30.9497L95.0532 30.8503V31.0896C95.0534 31.5269 95.2243 31.9467 95.5294 32.2599C95.6525 32.4232 95.8139 32.5538 95.9993 32.6402C96.1848 32.7265 96.3886 32.766 96.5928 32.7551C97.565 32.6941 98.514 32.4323 99.38 31.9862C99.8192 31.7586 100.246 31.5068 100.657 31.232C101.653 30.6018 102.331 30.1888 102.669 30.1888C102.724 30.185 102.778 30.1977 102.825 30.2254C102.872 30.2532 102.91 30.2945 102.933 30.3441L102.989 30.2993L102.957 30.4496C102.957 30.4527 102.957 30.4797 102.957 30.4797L102.916 30.6362L102.899 30.7178C102.842 30.9755 102.824 31.2404 102.848 31.5032C102.879 31.7763 102.984 32.0357 103.151 32.2537C103.257 32.4002 103.395 32.5203 103.555 32.6047C103.714 32.6891 103.891 32.7355 104.072 32.7403C104.224 32.7379 104.375 32.7106 104.518 32.6593C104.977 32.5259 105.391 32.2693 105.715 31.9174C106.101 31.5088 106.447 31.1375 106.771 30.7822C107.106 30.414 107.446 30.0182 107.781 29.6016C108.116 29.1849 108.44 28.7554 108.748 28.3203L108.843 28.1853L108.971 28.2902C109.376 28.6126 109.851 28.8371 110.357 28.9462C110.999 29.0918 111.65 29.1959 112.305 29.2579L112.45 29.2751L112.465 29.3979C112.512 29.7864 112.617 30.1655 112.778 30.522C112.949 30.9025 113.19 31.2476 113.488 31.5394C113.822 31.8817 114.222 32.153 114.664 32.3372C115.107 32.5172 115.57 32.6409 116.044 32.7054C116.365 32.7489 116.688 32.7708 117.012 32.771C117.172 32.771 117.334 32.7661 117.495 32.7544C117.982 32.7213 118.455 32.6704 118.9 32.6047C120.311 32.3942 121.912 32.1555 123.455 31.7696C124.279 31.5444 125.128 31.4193 125.982 31.3971C126.137 31.3971 126.292 31.4026 126.441 31.4136C127.466 31.5319 128.465 31.819 129.396 32.2635C129.567 32.3517 129.756 32.4014 129.948 32.409C130.082 32.4114 130.213 32.3729 130.324 32.2985C130.452 32.2202 130.563 32.1169 130.65 31.9947C130.738 31.8725 130.799 31.7339 130.832 31.5873C130.864 31.3737 130.844 31.1556 130.775 30.9511C130.705 30.7466 130.588 30.5616 130.432 30.4116M115.6 27.1544C116.009 26.9269 116.459 26.7854 116.924 26.7384C117.083 26.7233 117.243 26.7649 117.374 26.8557C117.505 26.9465 117.6 27.0808 117.642 27.2348L117.691 27.3931L117.529 27.4293C117.233 27.4902 116.931 27.5235 116.627 27.5287C116.076 27.5422 115.525 27.5217 114.976 27.4674C115.006 27.4551 115.542 27.1802 115.601 27.1519M34.3928 27.6907C33.0543 28.4533 31.7746 29.3148 30.5643 30.268C30.2575 30.495 29.5034 31.0044 29.253 31.1842L29.5414 30.6399C29.5889 30.5878 29.6286 30.5291 29.6592 30.4656C29.6819 30.4245 29.704 30.3858 29.7243 30.3564C29.7623 30.2999 29.7991 30.2434 29.836 30.187C29.9157 30.0643 29.9986 29.9415 30.0875 29.8188C30.3723 29.431 30.6754 29.0493 30.989 28.6848C31.2648 28.341 31.5864 28.0366 31.945 27.7803C32.4275 27.4634 32.9903 27.2908 33.5675 27.2827C33.7644 27.2814 33.9607 27.3064 34.151 27.3569C34.2376 27.3802 34.3045 27.3974 34.3591 27.4097L34.7806 27.506L34.3928 27.6907ZM27.2746 45.1597L27.3495 44.9044C27.455 44.5436 27.5624 44.1834 27.6661 43.822C27.9026 43.1925 28.2126 42.5931 28.5897 42.0363C28.6449 41.9406 28.7038 41.8485 28.7664 41.7589C29.0505 41.3533 29.4003 41.0023 29.7218 40.6225C29.4064 41.2134 27.652 44.4724 27.2746 45.1597ZM68.8454 28.7879C68.6104 28.9002 67.3972 29.3359 66.5056 29.6531L66.3792 29.6979C66.1295 29.7869 65.2649 29.99 64.8003 30.0986L64.6248 30.1397L64.5021 29.8624C64.5555 29.8268 64.6347 29.766 64.7359 29.6893C65.3606 29.2138 66.6603 28.2246 67.8599 28.2246C68.2173 28.2185 68.5679 28.3222 68.8645 28.5216L69.0854 28.6719L68.8454 28.7879Z" fill="white"/>
</g>
</mask>
<g mask="url(#mask0_325_1149)">
<rect x="0.34201" y="0.982422" width="131.318" height="54" fill="white"/>
</g>
<defs>
<clipPath id="clip0_325_1149">
<rect width="129.68" height="45.0434" fill="white" transform="translate(1.16251 5.45996)"/>
</clipPath>
</defs>
</svg>
