<svg width="14" height="17" viewBox="0 0 14 17" fill="none" xmlns="http://www.w3.org/2000/svg">
<g clip-path="url(#clip0_325_1172)">
<path d="M11.8779 4.18949C11.0146 3.62762 10.392 2.72823 10.1975 1.68034C10.1557 1.45399 10.1324 1.22081 10.1324 0.982422H7.37767L7.37325 12.0063C7.32703 13.2408 6.30938 14.2317 5.06224 14.2317C4.6744 14.2317 4.30946 14.135 3.98793 13.966C3.25082 13.5787 2.74642 12.8073 2.74642 11.9196C2.74642 10.6445 3.78536 9.6071 5.06184 9.6071C5.30018 9.6071 5.52886 9.64643 5.74509 9.71385V6.90572C5.52123 6.87522 5.29374 6.85635 5.06184 6.85635C2.26613 6.85635 -0.00830078 9.1275 -0.00830078 11.9196C-0.00830078 13.6325 0.848579 15.1483 2.15641 16.065C2.97993 16.6425 3.9819 16.9824 5.06224 16.9824C7.85795 16.9824 10.1324 14.7113 10.1324 11.9196V6.3294C11.2127 7.10357 12.5366 7.55989 13.965 7.55989V4.80915C13.1958 4.80915 12.4792 4.58079 11.8779 4.18949Z" fill="white"/>
</g>
<defs>
<clipPath id="clip0_325_1172">
<rect width="13.9733" height="16" fill="white" transform="translate(-0.00830078 0.982422)"/>
</clipPath>
</defs>
</svg>
