<svg width="48" height="48" viewBox="0 0 48 48" fill="none" xmlns="http://www.w3.org/2000/svg">
<path d="M36.27 23.7634C36.2125 23.2743 36.1741 22.7853 36.1741 22.6798C36.1741 22.488 36.2412 22.488 42.1158 22.488L42.0679 22.9866C42.0487 23.2647 41.9816 23.9648 41.9241 24.5497C41.8762 25.1347 41.7804 26.1704 41.7325 26.8513C41.675 27.5321 41.5695 28.8555 41.4929 29.7761C41.4162 30.6967 41.2916 32.279 41.2054 33.2763C41.1191 34.2736 41.0137 35.5491 40.9658 36.1053C40.9179 36.6615 40.8125 37.9561 40.7358 38.9821C40.6495 40.0082 40.5537 41.0247 40.5154 41.2357C40.477 41.4659 40.3333 41.744 40.1608 41.9358C39.9883 42.1276 39.7104 42.3002 39.4804 42.3481C39.1833 42.4248 39.0012 42.4152 38.6945 42.3002C38.4645 42.2139 38.1962 42.0317 38.1004 41.8878C37.995 41.7344 37.8704 41.3412 37.8129 40.996C37.7554 40.6507 37.6691 39.8069 37.6116 39.126C37.5637 38.4451 37.4295 36.9108 37.3241 35.7217C37.2187 34.5326 37.0941 33.1133 37.0462 32.5571C36.9887 32.0009 36.9216 31.205 36.8929 30.783C36.8641 30.3611 36.797 29.6227 36.7491 29.1528C36.7012 28.6829 36.5862 27.465 36.5095 26.4677C36.4233 25.4704 36.3179 24.2429 36.27 23.7634Z" stroke="#2E2E2E" stroke-width="1.18594"/>
<path d="M35.943 17.5562C35.9455 17.5527 35.9493 17.5475 35.9548 17.5407C35.9683 17.524 35.9866 17.504 36.0084 17.4832C36.0302 17.4624 36.0521 17.4441 36.0715 17.4297C36.0794 17.4239 36.0863 17.4192 36.0919 17.4155C36.1091 17.4117 36.1473 17.4047 36.2185 17.3975C36.3706 17.3821 36.625 17.3694 37.0709 17.3617C37.9305 17.3467 39.4391 17.3506 42.1548 17.3727L42.3854 17.6313V18.8917C42.3854 19.3818 42.3758 19.7593 42.3579 20.0296C42.3489 20.1652 42.3384 20.2653 42.3276 20.3349C42.324 20.3583 42.3208 20.3749 42.3185 20.386C42.3093 20.3983 42.2965 20.4133 42.281 20.4288C42.2649 20.4449 42.2495 20.458 42.237 20.4673C42.2345 20.4692 42.2324 20.4707 42.2306 20.4719C42.2178 20.4749 42.1876 20.4813 42.1324 20.4885C42.0245 20.5026 41.8608 20.5152 41.6129 20.5252C41.1186 20.545 40.3443 20.5523 39.1258 20.5523C37.6549 20.5523 36.8979 20.5496 36.4697 20.5256C36.2559 20.5136 36.1595 20.4978 36.112 20.4857C36.0857 20.479 36.0778 20.4758 36.0412 20.4526L36.0412 20.4526L36.0382 20.4507C35.9735 20.4103 35.9512 20.3841 35.9393 20.3673C35.9258 20.3483 35.9031 20.3086 35.8774 20.2147C35.8636 20.1518 35.8439 19.979 35.8322 19.7011C35.8209 19.4317 35.8185 19.1036 35.8277 18.7668C35.8418 18.3819 35.8626 18.078 35.8896 17.8555C35.9031 17.7438 35.9172 17.6616 35.9302 17.6047C35.936 17.5797 35.9405 17.5642 35.943 17.5562ZM36.0801 17.4185C36.08 17.4185 36.0808 17.4183 36.0824 17.4178L36.0801 17.4185Z" stroke="#2E2E2E" stroke-width="1.18594"/>
<path fill-rule="evenodd" clip-rule="evenodd" d="M21.2971 6.76965C21.6709 6.76965 22.3226 6.82719 22.7251 6.9135C23.1371 6.9998 23.7313 7.17242 24.0476 7.29708C24.3638 7.43134 24.9676 7.76698 25.3892 8.04507C25.8109 8.33276 26.3667 8.79307 26.635 9.08076C26.8938 9.35885 27.2867 9.85752 27.488 10.1644C27.6988 10.4808 27.9767 10.9795 28.1013 11.2672C28.2259 11.5549 28.4175 12.159 28.523 12.6097C28.6859 13.3002 28.705 13.6167 28.6571 14.6715C28.6284 15.362 28.5709 16.6757 28.5421 17.5964C28.4942 18.8526 28.523 19.6485 28.638 20.7609C28.7242 21.5761 28.9063 22.6789 29.0405 23.2063C29.1746 23.7337 29.4334 24.5584 29.625 25.0283C29.8167 25.4982 30.133 26.2174 30.3246 26.6106C30.5259 27.0038 30.9092 27.723 31.1871 28.1929C31.465 28.6628 32.0592 29.6218 32.5096 30.3026C32.9696 30.9835 33.4679 31.8465 33.6404 32.2205C33.8034 32.5945 34.0142 33.1699 34.1004 33.5151C34.1963 33.8987 34.2538 34.5508 34.2538 35.2125C34.2538 35.8742 34.1963 36.5455 34.1004 36.9386C34.0142 37.3031 33.7363 38.0223 33.4871 38.5497C33.1421 39.2689 32.8642 39.6813 32.3754 40.2183C32.0113 40.6115 31.4554 41.1101 31.1392 41.3403C30.823 41.5609 30.2671 41.8869 29.8934 42.0499C29.5196 42.2225 28.6571 42.5006 27.9767 42.6732C27.2963 42.8459 26.405 43.0377 26.0121 43.0952C25.6192 43.1431 24.7567 43.2199 24.0955 43.2486C23.4151 43.287 22.3801 43.2678 21.6996 43.2103C21.0384 43.1527 20.0034 42.9897 19.3996 42.8555C18.7959 42.7116 17.8663 42.4527 17.3392 42.2705C16.8122 42.0883 15.8634 41.6759 15.2309 41.3595C14.5984 41.043 13.7838 40.5923 13.4101 40.3526C13.0363 40.1128 12.4805 39.7196 12.1643 39.4799C11.848 39.2402 11.1676 38.6264 10.6405 38.1278C10.123 37.6195 9.45218 36.9099 9.14551 36.5359C8.84843 36.1619 8.31176 35.4331 7.96676 34.9056C7.62177 34.3782 7.10427 33.448 6.81677 32.8439C6.52927 32.2397 6.18427 31.415 6.0501 31.0218C5.91594 30.6287 5.69552 29.8711 5.56135 29.3437C5.43677 28.8162 5.25469 27.9244 5.17802 27.349C5.09177 26.7545 5.02469 25.6996 5.02469 24.8173C5.02469 23.8008 5.09177 22.9378 5.20677 22.1994C5.31219 21.5952 5.4751 20.7513 5.58052 20.3294C5.69552 19.9075 5.91594 19.1691 6.08844 18.6992C6.25135 18.2293 6.6251 17.3662 6.9126 16.7812C7.2001 16.1963 7.75593 15.2565 8.13926 14.6715C8.5226 14.0865 9.18384 13.2331 9.59593 12.7536C10.008 12.2741 10.7363 11.5549 11.2059 11.1425C11.6851 10.7302 12.5188 10.0877 13.0747 9.71367C13.6305 9.33968 14.493 8.83142 14.9913 8.58209C15.4897 8.33276 16.3042 7.96836 16.7834 7.77657C17.2722 7.58477 18.0963 7.32585 18.6042 7.18201C19.1217 7.04775 19.783 6.90391 20.0705 6.86555C20.358 6.8176 20.9138 6.77924 21.2876 6.76965L21.2971 6.76965ZM16.5342 10.7494C16.3522 10.8644 16.0838 11.1042 15.9497 11.2768C15.8155 11.459 15.5951 11.7946 15.4705 12.0344C15.2884 12.3892 15.2501 12.6193 15.2405 13.281C15.2405 14.0002 15.2692 14.1633 15.528 14.6619C15.6909 14.9784 16.0072 15.3907 16.2467 15.6017C16.4863 15.8031 16.9176 16.062 17.2051 16.1675C17.6172 16.3305 17.8855 16.3593 18.4509 16.3305C18.9397 16.3018 19.3038 16.2154 19.6009 16.0716C19.8405 15.9469 20.1951 15.688 20.3963 15.4962C20.5976 15.3044 20.8755 14.9304 21.0192 14.6715C21.1917 14.3167 21.2684 14.0002 21.3067 13.4728C21.3355 12.8878 21.3067 12.6481 21.1246 12.1782C20.9809 11.785 20.7605 11.459 20.4442 11.1425C20.1951 10.8932 19.783 10.5959 19.5242 10.4904C19.2463 10.3658 18.8151 10.2699 18.403 10.2507C17.9238 10.2219 17.6076 10.2603 17.3009 10.3849C17.0613 10.4713 16.7163 10.6439 16.5342 10.7494V10.7494ZM9.73968 19.1019C9.56718 19.2554 9.28926 19.6102 9.12634 19.8979C8.87718 20.339 8.83885 20.5308 8.82926 21.0966C8.82926 21.6336 8.88676 21.8637 9.07843 22.2473C9.21259 22.5158 9.46176 22.8515 9.64384 23.0049C9.82593 23.1583 10.1038 23.3405 10.2572 23.4269C10.4105 23.5036 10.8034 23.5899 11.1197 23.6186C11.4359 23.6378 11.8768 23.6091 12.0972 23.5515C12.3272 23.494 12.6913 23.3022 12.9022 23.1392C13.1226 22.9665 13.4388 22.583 13.6017 22.2953C13.8509 21.8541 13.8988 21.6624 13.8988 21.1445C13.8988 20.665 13.8413 20.3965 13.6497 19.9938C13.4867 19.6773 13.228 19.3321 12.9788 19.1307C12.7488 18.9485 12.4038 18.7471 12.2218 18.68C12.0397 18.6129 11.6468 18.5649 11.3593 18.5649C11.0718 18.5649 10.6597 18.6224 10.4488 18.6992C10.238 18.7759 9.92176 18.9581 9.73968 19.1019V19.1019ZM21.8338 23.868C21.6326 24.0214 21.3355 24.3187 21.163 24.5392C21.0001 24.7502 20.7796 25.1242 20.6934 25.364C20.588 25.6325 20.5305 26.0832 20.5209 26.5627C20.5209 27.186 20.5592 27.4257 20.7605 27.8573C20.8946 28.145 21.1917 28.5957 21.4217 28.845C21.6613 29.1039 22.0926 29.4204 22.3801 29.5642C22.773 29.756 23.0988 29.8231 23.6738 29.8519C24.3063 29.8807 24.5459 29.8519 25.0155 29.6697C25.3413 29.545 25.763 29.2861 25.9738 29.0751C26.3571 28.7107 26.3571 28.7107 26.29 28.1641C26.2325 27.7134 26.0696 27.3778 25.4084 26.275C24.9676 25.5366 24.498 24.7406 24.3638 24.5009C24.2201 24.2611 23.9996 23.9543 23.8655 23.8104C23.7313 23.657 23.5205 23.5036 23.3863 23.446C23.2521 23.3885 23.0701 23.3501 22.9742 23.3597C22.888 23.3597 22.6771 23.4173 22.5046 23.4748C22.3417 23.5419 22.0351 23.7145 21.8338 23.868V23.868ZM10.8897 29.9382C10.6501 30.1396 10.3626 30.5136 10.238 30.7821C10.0847 31.1273 10.0176 31.4438 10.0176 31.8849C10.008 32.3836 10.0655 32.6137 10.2859 33.0357C10.4488 33.3617 10.7172 33.6878 10.9855 33.8796C11.2155 34.0618 11.6468 34.2727 11.9343 34.3494C12.2697 34.4453 12.6051 34.4741 12.8447 34.4358C13.0555 34.3974 13.4005 34.2919 13.6113 34.196C13.8222 34.1001 14.1384 33.8796 14.3205 33.6973C14.493 33.5151 14.7326 33.1987 14.838 32.9877C14.9434 32.7767 15.0488 32.3644 15.0776 32.0767C15.1063 31.7123 15.068 31.3958 14.9626 31.0698C14.8667 30.8109 14.6751 30.4369 14.5313 30.2547C14.378 30.0725 14.0234 29.7944 13.7455 29.6409C13.3717 29.4396 13.0651 29.3532 12.653 29.3341C12.308 29.3149 11.9247 29.3532 11.6947 29.4396C11.4838 29.5163 11.1197 29.7464 10.8897 29.9382V29.9382ZM19.668 36.5359C19.4763 36.6701 19.1984 36.977 19.0546 37.2359C18.8342 37.6291 18.8055 37.7634 18.8438 38.3675C18.8726 38.9525 18.9301 39.1251 19.1888 39.4703C19.3517 39.7005 19.6776 39.9882 19.9076 40.1128C20.1951 40.2663 20.4826 40.3238 20.8659 40.3238C21.2205 40.3238 21.5559 40.2567 21.7763 40.1416C21.9776 40.0361 22.2555 39.8347 22.3992 39.6813C22.543 39.5374 22.7251 39.2498 22.8017 39.058C22.888 38.8566 22.9551 38.4826 22.9551 38.2141C22.9551 37.8944 22.8752 37.5748 22.7155 37.2551C22.5813 36.9962 22.3321 36.6797 22.1596 36.5647C21.9967 36.4496 21.6613 36.2961 21.4217 36.229C21.1821 36.1619 20.9234 36.1043 20.8467 36.1139C20.7701 36.1235 20.5496 36.1619 20.3676 36.2098C20.1855 36.2482 19.8692 36.4016 19.668 36.5359V36.5359Z" stroke="#2E2E2E" stroke-width="1.18594"/>
<path d="M37.5966 6.24261C37.8937 5.93574 38.3441 5.5138 38.5933 5.31242C39.0437 4.94801 39.0629 4.94801 39.3408 5.08227C39.4941 5.15898 39.9254 5.5138 40.2991 5.86862C40.6729 6.23302 41.1808 6.81799 41.43 7.19199C41.6791 7.55639 42.0241 8.20849 42.1966 8.63043C42.3691 9.05238 42.58 9.70447 42.6566 10.0689C42.762 10.5484 42.7908 11.1046 42.7525 12.0348C42.7141 13.128 42.6662 13.454 42.4458 14.0965C42.302 14.5185 42.12 14.9788 41.9187 15.3911H36.3604L36.1304 14.8925C36.0058 14.6144 35.8429 14.1732 35.7566 13.9047C35.68 13.6458 35.565 13.0129 35.4883 12.5142C35.3829 11.7087 35.3829 11.4881 35.5362 10.5484C35.6416 9.91544 35.8429 9.16745 36.0346 8.67838C36.2166 8.22767 36.5233 7.62352 36.715 7.33583C36.9066 7.04814 37.3091 6.54948 37.5966 6.24261Z" stroke="#2E2E2E" stroke-width="1.18594"/>
</svg>
